<svg width="74" height="10" viewBox="0 0 74 10" fill="none" xmlns="http://www.w3.org/2000/svg">
<path opacity="0.5" d="M3.9375 6.85352C3.9375 6.59831 4.02409 6.38411 4.19727 6.21094C4.37956 6.02865 4.59831 5.9375 4.85352 5.9375H6.94531L6.58984 4.92578C6.44401 4.55208 6.29818 4.20117 6.15234 3.87305C6.01562 3.53581 5.85612 3.23047 5.67383 2.95703C5.50977 2.68359 5.32292 2.53776 5.11328 2.51953C4.89453 2.53776 4.69857 2.68359 4.52539 2.95703C4.35221 3.23047 4.19271 3.53581 4.04688 3.87305C3.91016 4.20117 3.76888 4.55208 3.62305 4.92578L2.32422 8.48047C2.23307 8.67188 2.11458 8.83138 1.96875 8.95898C1.83203 9.07747 1.6224 9.13672 1.33984 9.13672C1.07552 9.13672 0.856771 9.04557 0.683594 8.86328C0.519531 8.68099 0.446615 8.46224 0.464844 8.20703C0.473958 8.08854 0.501302 7.97917 0.546875 7.87891L2.05078 3.99609C2.47005 2.97526 2.88932 2.15039 3.30859 1.52148C3.71875 0.901693 4.32031 0.58724 5.11328 0.578125C5.89714 0.58724 6.49414 0.901693 6.9043 1.52148C7.32357 2.13216 7.74284 2.95703 8.16211 3.99609L9.66602 7.87891C9.71159 7.97917 9.73893 8.08854 9.74805 8.20703C9.76628 8.46224 9.6888 8.68099 9.51562 8.86328C9.35156 9.04557 9.13737 9.13672 8.87305 9.13672C8.57227 9.13672 8.34896 9.07747 8.20312 8.95898C8.06641 8.83138 7.95247 8.67188 7.86133 8.48047L7.60156 7.76953H4.85352C4.59831 7.76953 4.38411 7.67839 4.21094 7.49609C4.02865 7.32292 3.9375 7.10872 3.9375 6.85352ZM14.1914 6.85352C14.1914 6.59831 14.278 6.38411 14.4512 6.21094C14.6335 6.02865 14.8522 5.9375 15.1074 5.9375H17.1992L16.8438 4.92578C16.6979 4.55208 16.5521 4.20117 16.4062 3.87305C16.2695 3.53581 16.11 3.23047 15.9277 2.95703C15.7637 2.68359 15.5768 2.53776 15.3672 2.51953C15.1484 2.53776 14.9525 2.68359 14.7793 2.95703C14.6061 3.23047 14.4466 3.53581 14.3008 3.87305C14.1641 4.20117 14.0228 4.55208 13.877 4.92578L12.5781 8.48047C12.487 8.67188 12.3685 8.83138 12.2227 8.95898C12.0859 9.07747 11.8763 9.13672 11.5938 9.13672C11.3294 9.13672 11.1107 9.04557 10.9375 8.86328C10.7734 8.68099 10.7005 8.46224 10.7188 8.20703C10.7279 8.08854 10.7552 7.97917 10.8008 7.87891L12.3047 3.99609C12.724 2.97526 13.1432 2.15039 13.5625 1.52148C13.9727 0.901693 14.5742 0.58724 15.3672 0.578125C16.151 0.58724 16.748 0.901693 17.1582 1.52148C17.5775 2.13216 17.9967 2.95703 18.416 3.99609L19.9199 7.87891C19.9655 7.97917 19.9928 8.08854 20.002 8.20703C20.0202 8.46224 19.9427 8.68099 19.7695 8.86328C19.6055 9.04557 19.3913 9.13672 19.127 9.13672C18.8262 9.13672 18.6029 9.07747 18.457 8.95898C18.3203 8.83138 18.2064 8.67188 18.1152 8.48047L17.8555 7.76953H15.1074C14.8522 7.76953 14.638 7.67839 14.4648 7.49609C14.2826 7.32292 14.1914 7.10872 14.1914 6.85352ZM23.2148 8.27539C23.1602 8.82227 22.8594 9.11849 22.3125 9.16406C22.0573 9.16406 21.834 9.08203 21.6426 8.91797C21.4603 8.74479 21.3691 8.5306 21.3691 8.27539V1.79492C21.3783 1.53971 21.474 1.33008 21.6562 1.16602C21.8385 0.992839 22.0573 0.90625 22.3125 0.90625H22.9824H24.6641H28.041C28.0957 0.90625 28.1504 0.910807 28.2051 0.919922H28.2871C28.9251 0.938151 29.4492 1.08398 29.8594 1.35742C30.2695 1.63086 30.5658 1.94531 30.748 2.30078C30.9303 2.64714 31.0215 2.99805 31.0215 3.35352C31.0215 3.7181 30.9303 4.07812 30.748 4.43359C30.5749 4.77995 30.2786 5.08984 29.8594 5.36328C29.4492 5.63672 28.9251 5.78255 28.2871 5.80078H25.8809C25.9538 6.25651 26.1042 6.59375 26.332 6.8125C26.5508 7.03125 26.8288 7.14062 27.166 7.14062H30.1191C30.3743 7.14974 30.584 7.24544 30.748 7.42773C30.9212 7.61003 31.0078 7.82878 31.0078 8.08398C30.9987 8.33008 30.9076 8.53971 30.7344 8.71289C30.5703 8.87695 30.3652 8.96354 30.1191 8.97266H26.9199C26.2454 8.98177 25.6348 8.71745 25.0879 8.17969C24.541 7.64193 24.2083 7.00391 24.0898 6.26562C23.9258 5.44531 23.8438 4.98503 23.8438 4.88477C23.8438 4.62956 23.9303 4.41536 24.1035 4.24219C24.2858 4.0599 24.5046 3.96875 24.7598 3.96875H28.3691C28.5423 3.95964 28.6836 3.92318 28.793 3.85938C28.9115 3.78646 28.998 3.70898 29.0527 3.62695C29.1074 3.53581 29.1348 3.44466 29.1348 3.35352C29.1348 3.26237 29.1074 3.17578 29.0527 3.09375C28.998 3.0026 28.9115 2.92513 28.793 2.86133C28.6836 2.78841 28.5423 2.7474 28.3691 2.73828H24.6641H23.5703C23.3333 2.7474 23.2148 2.86589 23.2148 3.09375V8.27539ZM35.6152 2.73828C35.2689 2.75651 34.9772 2.88867 34.7402 3.13477C34.5124 3.38086 34.3483 3.66341 34.248 3.98242C34.1478 4.29232 34.0977 4.61133 34.0977 4.93945C34.0977 5.26758 34.1432 5.59115 34.2344 5.91016C34.3346 6.22917 34.5033 6.51172 34.7402 6.75781C34.9772 6.99479 35.2689 7.1224 35.6152 7.14062H40.127C40.7012 7.19531 41.0156 7.50977 41.0703 8.08398C41.0612 8.33919 40.9655 8.55339 40.7832 8.72656C40.6009 8.89062 40.3822 8.97266 40.127 8.97266H35.7656H35.1367C34.4987 8.9362 33.9746 8.69466 33.5645 8.24805C33.1543 7.79232 32.8581 7.27734 32.6758 6.70312C32.5026 6.12891 32.416 5.54102 32.416 4.93945C32.416 4.49284 32.4661 4.05078 32.5664 3.61328C32.6667 3.17578 32.8216 2.76107 33.0312 2.36914C33.25 1.9681 33.5371 1.6263 33.8926 1.34375C34.2572 1.0612 34.6719 0.915365 35.1367 0.90625H35.3965H40.127C40.7012 0.960938 41.0156 1.27539 41.0703 1.84961C41.0703 2.10482 40.9746 2.31901 40.7832 2.49219C40.6009 2.65625 40.3822 2.73828 40.127 2.73828H35.6152ZM46.1152 4.74805C45.8691 4.2832 45.5592 3.84115 45.1855 3.42188C44.8118 3.0026 44.4518 2.77474 44.1055 2.73828H42.957C42.7018 2.73828 42.4876 2.64714 42.3145 2.46484C42.1322 2.29167 42.041 2.07747 42.041 1.82227C42.041 1.56706 42.1276 1.35286 42.3008 1.17969C42.4831 0.997396 42.7018 0.90625 42.957 0.90625H44.1055V0.919922H44.2422C44.8984 0.95638 45.5775 1.32552 46.2793 2.02734C46.6257 2.38281 46.9447 2.78385 47.2363 3.23047C47.528 2.78385 47.8516 2.38281 48.207 2.02734C48.8997 1.32552 49.5742 0.95638 50.2305 0.919922H50.3672V0.90625H51.5156C51.7708 0.90625 51.985 0.997396 52.1582 1.17969C52.3405 1.35286 52.4316 1.56706 52.4316 1.82227C52.4316 2.07747 52.3405 2.29167 52.1582 2.46484C51.985 2.64714 51.7708 2.73828 51.5156 2.73828H50.3672C50.0208 2.77474 49.6608 3.0026 49.2871 3.42188C48.9134 3.84115 48.6035 4.2832 48.3574 4.74805C48.3027 4.84831 48.248 4.94401 48.1934 5.03516C48.2116 5.0625 48.2298 5.08984 48.248 5.11719C48.4941 5.59115 48.804 6.03776 49.1777 6.45703C49.5514 6.8763 49.9115 7.09961 50.2578 7.12695H51.4062C51.6615 7.12695 51.8757 7.2181 52.0488 7.40039C52.2311 7.57357 52.3223 7.78776 52.3223 8.04297C52.3223 8.29818 52.2311 8.51693 52.0488 8.69922C51.8757 8.8724 51.6615 8.95898 51.4062 8.95898H50.1211C49.4648 8.92253 48.7904 8.55794 48.0977 7.86523C47.7878 7.54622 47.5007 7.19987 47.2363 6.82617C46.972 7.19987 46.6849 7.54622 46.375 7.86523C45.6823 8.55794 45.0078 8.92253 44.3516 8.95898H43.0664C42.8112 8.95898 42.5924 8.8724 42.4102 8.69922C42.237 8.51693 42.1504 8.29818 42.1504 8.04297C42.1504 7.78776 42.2415 7.57357 42.4238 7.40039C42.597 7.2181 42.8112 7.12695 43.0664 7.12695H44.2148C44.5612 7.09961 44.9212 6.8763 45.2949 6.45703C45.6686 6.03776 45.9785 5.59115 46.2246 5.11719C46.2428 5.08984 46.2611 5.0625 46.2793 5.03516C46.2246 4.94401 46.1699 4.84831 46.1152 4.74805ZM53.5527 8.05664C53.5527 7.80143 53.6393 7.58724 53.8125 7.41406C53.9948 7.23177 54.2135 7.14062 54.4688 7.14062H57.0938V2.73828H54.4688C54.2135 2.73828 53.9993 2.64714 53.8262 2.46484C53.6439 2.29167 53.5527 2.07747 53.5527 1.82227C53.5527 1.56706 53.6393 1.35286 53.8125 1.17969C53.9948 0.997396 54.2135 0.90625 54.4688 0.90625H61.5508C61.806 0.90625 62.0247 0.992839 62.207 1.16602C62.3802 1.34831 62.4668 1.56706 62.4668 1.82227C62.4668 2.07747 62.3757 2.29622 62.1934 2.47852C62.0202 2.65169 61.806 2.73828 61.5508 2.73828H58.9395V7.14062H61.5508C61.806 7.14062 62.0247 7.22721 62.207 7.40039C62.3802 7.58268 62.4668 7.80143 62.4668 8.05664C62.4668 8.31185 62.3757 8.5306 62.1934 8.71289C62.0202 8.88607 61.806 8.97266 61.5508 8.97266H54.4688C54.2135 8.97266 53.9993 8.88151 53.8262 8.69922C53.6439 8.52604 53.5527 8.31185 53.5527 8.05664ZM71.2168 0.90625C71.6816 0.915365 72.0964 1.0612 72.4609 1.34375C72.8255 1.6263 73.1172 1.96354 73.3359 2.35547C73.5638 2.7474 73.7324 3.16211 73.8418 3.59961C73.9512 4.03711 74.0059 4.48372 74.0059 4.93945C74.0059 5.54102 73.9102 6.13346 73.7188 6.7168C73.5365 7.29102 73.2311 7.80143 72.8027 8.24805C72.3835 8.69466 71.8548 8.9362 71.2168 8.97266H66.4453C65.8073 8.94531 65.2741 8.70833 64.8457 8.26172C64.4173 7.8151 64.112 7.30013 63.9297 6.7168C63.7565 6.13346 63.6699 5.54102 63.6699 4.93945C63.6699 4.33789 63.7611 3.75 63.9434 3.17578C64.1257 2.59245 64.4264 2.07747 64.8457 1.63086C65.2741 1.17513 65.8073 0.933594 66.4453 0.90625H66.7051H70.957H71.2168ZM70.752 7.14062C71.0983 7.1224 71.3854 6.99479 71.6133 6.75781C71.8503 6.51172 72.0189 6.22917 72.1191 5.91016C72.2194 5.59115 72.2695 5.26758 72.2695 4.93945C72.2695 4.61133 72.2148 4.29232 72.1055 3.98242C72.0052 3.66341 71.8411 3.38086 71.6133 3.13477C71.3854 2.88867 71.0983 2.75651 70.752 2.73828H66.8691C66.5228 2.75651 66.2357 2.88867 66.0078 3.13477C65.7799 3.38086 65.6113 3.66341 65.502 3.98242C65.4017 4.29232 65.3516 4.61133 65.3516 4.93945C65.3516 5.26758 65.4017 5.59115 65.502 5.91016C65.6022 6.22917 65.7663 6.51172 65.9941 6.75781C66.2311 6.99479 66.5228 7.1224 66.8691 7.14062H70.752Z" fill="white"/>
</svg>
