<svg   viewBox="0 0 28 18" fill="none" xmlns="http://www.w3.org/2000/svg">
<path d="M3.61021 11.5498L6.62806 4.77899H8.17568L11.2032 11.5498H9.55886L7.08267 5.57214H7.70172L5.21586 11.5498H3.61021ZM5.11914 10.0989L5.53506 8.90919H9.01719L9.44278 10.0989H5.11914ZM11.7719 11.5498V5.90746H14.3351C14.9477 5.90746 15.4878 6.02568 15.9553 6.26212C16.4228 6.49319 16.7882 6.8183 17.0515 7.23744C17.3148 7.65659 17.4464 8.15365 17.4464 8.72863C17.4464 9.29824 17.3148 9.7953 17.0515 10.2198C16.7882 10.639 16.4228 10.9668 15.9553 11.2032C15.4878 11.4343 14.9477 11.5498 14.3351 11.5498H11.7719ZM13.0777 10.4778H14.2706C14.6468 10.4778 14.9719 10.4079 15.2459 10.2682C15.5254 10.1231 15.7403 9.9189 15.8908 9.65559C16.0466 9.39228 16.1245 9.08329 16.1245 8.72863C16.1245 8.3686 16.0466 8.05961 15.8908 7.80168C15.7403 7.53837 15.5254 7.33685 15.2459 7.19714C14.9719 7.05205 14.6468 6.97951 14.2706 6.97951H13.0777V10.4778ZM20.2851 11.6465C19.8337 11.6465 19.4012 11.5874 18.9874 11.4692C18.5736 11.3456 18.2404 11.1871 17.9879 10.9936L18.4312 10.0103C18.673 10.1822 18.9578 10.3246 19.2856 10.4375C19.6188 10.5449 19.9546 10.5987 20.2932 10.5987C20.5511 10.5987 20.758 10.5745 20.9138 10.5261C21.0751 10.4724 21.1933 10.3998 21.2685 10.3085C21.3437 10.2171 21.3814 10.1124 21.3814 9.99413C21.3814 9.84367 21.3222 9.72545 21.204 9.63947C21.0858 9.54812 20.93 9.47557 20.7365 9.42183C20.5431 9.36272 20.3281 9.30899 20.0917 9.26063C19.8606 9.20689 19.6269 9.1424 19.3904 9.06717C19.1593 8.99194 18.9471 8.89522 18.7536 8.777C18.5602 8.65877 18.4017 8.50294 18.2781 8.30949C18.1598 8.11604 18.1007 7.86885 18.1007 7.56792C18.1007 7.2455 18.1867 6.95264 18.3587 6.68933C18.536 6.42064 18.7993 6.20839 19.1486 6.05255C19.5033 5.89134 19.9466 5.81073 20.4786 5.81073C20.8332 5.81073 21.1825 5.85372 21.5264 5.9397C21.8704 6.02031 22.174 6.1439 22.4373 6.31048L22.0343 7.30193C21.7709 7.15146 21.5076 7.0413 21.2443 6.97145C20.981 6.89621 20.7231 6.8586 20.4705 6.8586C20.218 6.8586 20.0111 6.88815 19.8499 6.94726C19.6887 7.00637 19.5731 7.08429 19.5033 7.18102C19.4334 7.27237 19.3985 7.37984 19.3985 7.50344C19.3985 7.64853 19.4576 7.76675 19.5758 7.8581C19.694 7.94408 19.8499 8.01394 20.0433 8.06767C20.2368 8.12141 20.449 8.17515 20.6801 8.22888C20.9165 8.28262 21.1503 8.34442 21.3814 8.41427C21.6178 8.48413 21.8327 8.57817 22.0262 8.69639C22.2196 8.81461 22.3755 8.97045 22.4937 9.1639C22.6173 9.35735 22.6791 9.60185 22.6791 9.8974C22.6791 10.2144 22.5904 10.5046 22.4131 10.7679C22.2358 11.0312 21.9698 11.2435 21.6151 11.4047C21.2658 11.5659 20.8225 11.6465 20.2851 11.6465Z" fill="#44E19F"/>
<rect x="1.47792" y="1.7455" width="23.3754" height="14.5089" stroke="#44E19F" stroke-width="1.6121"/>
</svg>
