<svg   viewBox="0 0 21 21" fill="none" xmlns="http://www.w3.org/2000/svg">
<path d="M0.5 8.52993C0.5 6.86741 0.870833 5.34206 1.6125 3.95387C2.35417 2.56567 3.35 1.41438 4.6 0.5L5.775 2.09601C4.775 2.82751 3.97917 3.75021 3.3875 4.86409C2.79583 5.97797 2.5 7.19992 2.5 8.52993H0.5ZM18.5 8.52993C18.5 7.19992 18.2042 5.97797 17.6125 4.86409C17.0208 3.75021 16.225 2.82751 15.225 2.09601L16.4 0.5C17.65 1.41438 18.6458 2.56567 19.3875 3.95387C20.1292 5.34206 20.5 6.86741 20.5 8.52993H18.5ZM2.5 17.5075V15.5125H4.5V8.52993C4.5 7.15004 4.91667 5.92394 5.75 4.85162C6.58333 3.7793 7.66667 3.07689 9 2.74439V2.04613C9 1.63051 9.14583 1.27722 9.4375 0.986284C9.72917 0.695345 10.0833 0.549875 10.5 0.549875C10.9167 0.549875 11.2708 0.695345 11.5625 0.986284C11.8542 1.27722 12 1.63051 12 2.04613V2.74439C13.3333 3.07689 14.4167 3.7793 15.25 4.85162C16.0833 5.92394 16.5 7.15004 16.5 8.52993V15.5125H18.5V17.5075H2.5ZM10.5 20.5C9.95 20.5 9.47917 20.3047 9.0875 19.914C8.69583 19.5233 8.5 19.0536 8.5 18.505H12.5C12.5 19.0536 12.3042 19.5233 11.9125 19.914C11.5208 20.3047 11.05 20.5 10.5 20.5ZM6.5 15.5125H14.5V8.52993C14.5 7.43267 14.1083 6.49335 13.325 5.71197C12.5417 4.93059 11.6 4.5399 10.5 4.5399C9.4 4.5399 8.45833 4.93059 7.675 5.71197C6.89167 6.49335 6.5 7.43267 6.5 8.52993V15.5125Z" fill="#FF2897"/>
</svg>
