<svg   viewBox="0 0 25 25" fill="none" xmlns="http://www.w3.org/2000/svg">
<path d="M0 10.0374C0 7.95927 0.463542 6.05258 1.39062 4.31733C2.31771 2.58209 3.5625 1.14298 5.125 0L6.59375 1.99501C5.34375 2.90939 4.34896 4.06276 3.60938 5.45511C2.86979 6.84747 2.5 8.3749 2.5 10.0374H0ZM22.5 10.0374C22.5 8.3749 22.1302 6.84747 21.3906 5.45511C20.651 4.06276 19.6562 2.90939 18.4062 1.99501L19.875 0C21.4375 1.14298 22.6823 2.58209 23.6094 4.31733C24.5365 6.05258 25 7.95927 25 10.0374H22.5ZM2.5 21.2594V18.7656H5V10.0374C5 8.31255 5.52083 6.77993 6.5625 5.43953C7.60417 4.09913 8.95833 3.22111 10.625 2.80549V1.93267C10.625 1.41313 10.8073 0.97153 11.1719 0.607855C11.5365 0.244181 11.9792 0.0623441 12.5 0.0623441C13.0208 0.0623441 13.4635 0.244181 13.8281 0.607855C14.1927 0.97153 14.375 1.41313 14.375 1.93267V2.80549C16.0417 3.22111 17.3958 4.09913 18.4375 5.43953C19.4792 6.77993 20 8.31255 20 10.0374V18.7656H22.5V21.2594H2.5ZM12.5 25C11.8125 25 11.224 24.7558 10.7344 24.2675C10.2448 23.7791 10 23.192 10 22.5062H15C15 23.192 14.7552 23.7791 14.2656 24.2675C13.776 24.7558 13.1875 25 12.5 25ZM7.5 18.7656H17.5V10.0374C17.5 8.66584 17.0104 7.49169 16.0312 6.51496C15.0521 5.53824 13.875 5.04988 12.5 5.04988C11.125 5.04988 9.94792 5.53824 8.96875 6.51496C7.98958 7.49169 7.5 8.66584 7.5 10.0374V18.7656Z" fill="white"/>
</svg>
