<svg   viewBox="0 0 20 21" fill="none" xmlns="http://www.w3.org/2000/svg">
<path d="M0 8.52993C0 6.86741 0.370833 5.34206 1.1125 3.95387C1.85417 2.56567 2.85 1.41438 4.1 0.5L5.275 2.09601C4.275 2.82751 3.47917 3.75021 2.8875 4.86409C2.29583 5.97797 2 7.19992 2 8.52993H0ZM18 8.52993C18 7.19992 17.7042 5.97797 17.1125 4.86409C16.5208 3.75021 15.725 2.82751 14.725 2.09601L15.9 0.5C17.15 1.41438 18.1458 2.56567 18.8875 3.95387C19.6292 5.34206 20 6.86741 20 8.52993H18ZM2 17.5075V15.5125H4V8.52993C4 7.15004 4.41667 5.92394 5.25 4.85162C6.08333 3.7793 7.16667 3.07689 8.5 2.74439V2.04613C8.5 1.63051 8.64583 1.27722 8.9375 0.986284C9.22917 0.695345 9.58333 0.549875 10 0.549875C10.4167 0.549875 10.7708 0.695345 11.0625 0.986284C11.3542 1.27722 11.5 1.63051 11.5 2.04613V2.74439C12.8333 3.07689 13.9167 3.7793 14.75 4.85162C15.5833 5.92394 16 7.15004 16 8.52993V15.5125H18V17.5075H2ZM10 20.5C9.45 20.5 8.97917 20.3047 8.5875 19.914C8.19583 19.5233 8 19.0536 8 18.505H12C12 19.0536 11.8042 19.5233 11.4125 19.914C11.0208 20.3047 10.55 20.5 10 20.5ZM6 15.5125H14V8.52993C14 7.43267 13.6083 6.49335 12.825 5.71197C12.0417 4.93059 11.1 4.5399 10 4.5399C8.9 4.5399 7.95833 4.93059 7.175 5.71197C6.39167 6.49335 6 7.43267 6 8.52993V15.5125Z" fill="#44E19F"/>
</svg>
