<svg   viewBox="0 0 40 40" fill="none" xmlns="http://www.w3.org/2000/svg">
<path d="M0.675 7.86762C0.675 3.89524 3.89525 0.675 7.86762 0.675H32.1324C36.1048 0.675 39.325 3.89525 39.325 7.86762V32.1324C39.325 36.1048 36.1048 39.325 32.1324 39.325H7.86762C3.89524 39.325 0.675 36.1048 0.675 32.1324V7.86762Z" stroke="#292828" stroke-width="1.35"/>
<path d="M7 17.0374C7 14.9593 7.46354 13.0526 8.39062 11.3173C9.31771 9.58209 10.5625 8.14298 12.125 7L13.5938 8.99501C12.3438 9.90939 11.349 11.0628 10.6094 12.4551C9.86979 13.8475 9.5 15.3749 9.5 17.0374H7ZM29.5 17.0374C29.5 15.3749 29.1302 13.8475 28.3906 12.4551C27.651 11.0628 26.6562 9.90939 25.4062 8.99501L26.875 7C28.4375 8.14298 29.6823 9.58209 30.6094 11.3173C31.5365 13.0526 32 14.9593 32 17.0374H29.5ZM9.5 28.2594V25.7656H12V17.0374C12 15.3126 12.5208 13.7799 13.5625 12.4395C14.6042 11.0991 15.9583 10.2211 17.625 9.80549V8.93267C17.625 8.41313 17.8073 7.97153 18.1719 7.60786C18.5365 7.24418 18.9792 7.06234 19.5 7.06234C20.0208 7.06234 20.4635 7.24418 20.8281 7.60786C21.1927 7.97153 21.375 8.41313 21.375 8.93267V9.80549C23.0417 10.2211 24.3958 11.0991 25.4375 12.4395C26.4792 13.7799 27 15.3126 27 17.0374V25.7656H29.5V28.2594H9.5ZM19.5 32C18.8125 32 18.224 31.7558 17.7344 31.2675C17.2448 30.7791 17 30.192 17 29.5062H22C22 30.192 21.7552 30.7791 21.2656 31.2675C20.776 31.7558 20.1875 32 19.5 32ZM14.5 25.7656H24.5V17.0374C24.5 15.6658 24.0104 14.4917 23.0312 13.515C22.0521 12.5382 20.875 12.0499 19.5 12.0499C18.125 12.0499 16.9479 12.5382 15.9688 13.515C14.9896 14.4917 14.5 15.6658 14.5 17.0374V25.7656Z" fill="#006F92"/>
</svg>
