<svg width="11" height="12" viewBox="0 0 11 12" fill="none" xmlns="http://www.w3.org/2000/svg">
<path d="M3.01616 3.87C2.72221 3.87 2.48391 4.10831 2.48391 4.40226C2.48391 4.69622 2.72221 4.93452 3.01616 4.93452V3.87ZM7.98383 4.93452C8.27777 4.93452 8.51608 4.69622 8.51608 4.40226C8.51608 4.10831 8.27777 3.87 7.98383 3.87V4.93452ZM3.63712 5.68607C3.34316 5.68607 3.10487 5.92438 3.10487 6.21833C3.10487 6.51227 3.34316 6.75058 3.63712 6.75058V5.68607ZM7.36287 6.75058C7.65681 6.75058 7.89512 6.51227 7.89512 6.21833C7.89512 5.92438 7.65681 5.68607 7.36287 5.68607V6.75058ZM3.13183 1.37407V0.841797L3.12795 0.841825L3.13183 1.37407ZM7.86886 1.37407L7.87291 0.841811H7.86886V1.37407ZM10.4677 4.01194L9.93541 4.00803V4.01194H10.4677ZM10.4677 7.21471H9.93541V7.21862L10.4677 7.21471ZM7.86815 9.85258V10.3848H7.87206L7.86815 9.85258ZM3.13183 9.85258V9.32032C3.0407 9.32032 2.9511 9.34375 2.8716 9.38831L3.13183 9.85258ZM0.532321 11.3096H7.09096e-05C7.09096e-05 11.4985 0.10024 11.6733 0.263265 11.7688C0.426283 11.8643 0.627729 11.8662 0.792549 11.7738L0.532321 11.3096ZM0.532321 4.01194H1.06459L1.06456 4.00803L0.532321 4.01194ZM3.01616 4.93452H7.98383V3.87H3.01616V4.93452ZM3.63712 6.75058H7.36287V5.68607H3.63712V6.75058ZM3.13183 1.90633H7.86886V0.841811L3.13183 0.841797V1.90633ZM7.86482 1.90631C9.01696 1.91502 9.94386 2.85592 9.93541 4.00803L10.9999 4.01585C11.0127 2.27593 9.6128 0.854969 7.87291 0.841811L7.86482 1.90631ZM9.93541 4.01194V7.21471H10.9999V4.01194H9.93541ZM9.93541 7.21862C9.93946 7.77202 9.72358 8.30428 9.3351 8.69843L10.0933 9.44565C10.6799 8.85038 11.006 8.04652 10.9999 7.21081L9.93541 7.21862ZM9.3351 8.69843C8.9467 9.09259 8.41765 9.31628 7.86425 9.32032L7.87206 10.3848C8.70769 10.3787 9.50677 10.0409 10.0933 9.44565L9.3351 8.69843ZM7.86815 9.32032H3.13183V10.3848H7.86815V9.32032ZM2.8716 9.38831L0.272093 10.8453L0.792549 11.7738L3.39206 10.3169L2.8716 9.38831ZM1.06457 11.3096L1.06459 4.01194H7.09096e-05V11.3096H1.06457ZM1.06456 4.00803C1.06049 3.45466 1.27642 2.92235 1.66484 2.5282L0.906642 1.781C0.320046 2.37625 -0.0060535 3.18016 8.51222e-05 4.01585L1.06456 4.00803ZM1.66484 2.5282C2.05327 2.13405 2.58235 1.91034 3.13571 1.90631L3.12795 0.841825C2.29227 0.847914 1.49323 1.18575 0.906642 1.781L1.66484 2.5282Z" fill="#6385C4"/>
</svg>
