<svg width="27" height="27" viewBox="0 0 27 27" fill="none" xmlns="http://www.w3.org/2000/svg">
<path d="M7.67191 7.98949C6.97632 7.98949 6.41243 8.55339 6.41243 9.24899C6.41243 9.94459 6.97632 10.5085 7.67191 10.5085V7.98949ZM19.4271 10.5085C20.1227 10.5085 20.6866 9.94459 20.6866 9.24899C20.6866 8.55339 20.1227 7.98949 19.4271 7.98949V10.5085ZM9.14131 12.2869C8.44572 12.2869 7.88182 12.8508 7.88182 13.5464C7.88182 14.242 8.44572 14.8059 9.14131 14.8059V12.2869ZM17.9577 14.8059C18.6533 14.8059 19.2172 14.242 19.2172 13.5464C19.2172 12.8508 18.6533 12.2869 17.9577 12.2869V14.8059ZM7.94564 2.08327V0.82373L7.93645 0.823798L7.94564 2.08327ZM19.155 2.08327L19.1646 0.823764H19.155V2.08327ZM25.3047 8.32535L24.0452 8.3161V8.32535H25.3047ZM25.3047 15.9042H24.0452V15.9134L25.3047 15.9042ZM19.1534 22.1463V23.4058H19.1626L19.1534 22.1463ZM7.94564 22.1463V20.8868C7.73 20.8868 7.51797 20.9422 7.32985 21.0477L7.94564 22.1463ZM1.79432 25.594H0.534836C0.534836 26.041 0.77187 26.4546 1.15764 26.6807C1.5434 26.9067 2.02009 26.9112 2.41011 26.6926L1.79432 25.594ZM1.79432 8.32535H3.05384L3.05377 8.3161L1.79432 8.32535ZM7.67191 10.5085H19.4271V7.98949H7.67191V10.5085ZM9.14131 14.8059H17.9577V12.2869H9.14131V14.8059ZM7.94564 3.34277H19.155V0.823764L7.94564 0.82373V3.34277ZM19.1455 3.34273C21.8718 3.36334 24.0652 5.58982 24.0452 8.3161L26.5642 8.33461C26.5944 4.21737 23.2818 0.854899 19.1646 0.823764L19.1455 3.34273ZM24.0452 8.32535V15.9042H26.5642V8.32535H24.0452ZM24.0452 15.9134C24.0548 17.223 23.5439 18.4825 22.6247 19.4152L24.4188 21.1834C25.807 19.7747 26.5786 17.8725 26.5642 15.895L24.0452 15.9134ZM22.6247 19.4152C21.7056 20.3479 20.4537 20.8772 19.1441 20.8868L19.1626 23.4058C21.14 23.3913 23.0309 22.592 24.4188 21.1834L22.6247 19.4152ZM19.1534 20.8868H7.94564V23.4058H19.1534V20.8868ZM7.32985 21.0477L1.17853 24.4953L2.41011 26.6926L8.56143 23.2449L7.32985 21.0477ZM3.0538 25.594L3.05384 8.32535H0.534836V25.594H3.0538ZM3.05377 8.3161C3.04415 7.00666 3.55511 5.74702 4.47425 4.81432L2.68009 3.0462C1.292 4.45476 0.520343 6.35707 0.534869 8.33461L3.05377 8.3161ZM4.47425 4.81432C5.39339 3.88163 6.64538 3.35227 7.95482 3.34273L7.93645 0.823798C5.95895 0.838206 4.06816 1.63764 2.68009 3.0462L4.47425 4.81432Z" fill="#6385C4"/>
</svg>
