<svg   viewBox="0 0 31 30" fill="none" xmlns="http://www.w3.org/2000/svg">
<path d="M1.40115 5.82787C1.40115 2.93109 3.74945 0.582787 6.64623 0.582787H24.9905C27.8873 0.582787 30.2356 2.93109 30.2356 5.82787V24.1721C30.2356 27.0689 27.8873 29.4172 24.9905 29.4172H6.64623C3.74945 29.4172 1.40115 27.0689 1.40115 24.1721V5.82787Z" fill="#801427" stroke="#FF0000" stroke-width="1.16557"/>
<path d="M13.1038 19.2859L15.58 16.8097L18.0562 19.2859L19.3895 17.9525L16.9133 15.4763L19.3895 13.0001L18.0562 11.6668L15.58 14.143L13.1038 11.6668L11.7705 13.0001L14.2467 15.4763L11.7705 17.9525L13.1038 19.2859ZM10.8181 23.5716C10.2943 23.5716 9.84586 23.3851 9.47284 23.012C9.09983 22.639 8.91332 22.1906 8.91332 21.6668V9.28585H7.96094V7.38109H12.7228V6.42871H18.4371V7.38109H23.199V9.28585H22.2467V21.6668C22.2467 22.1906 22.0601 22.639 21.6871 23.012C21.3141 23.3851 20.8657 23.5716 20.3419 23.5716H10.8181ZM20.3419 9.28585H10.8181V21.6668H20.3419V9.28585Z" fill="#FF0000"/>
</svg>
