<svg   viewBox="0 0 27 18" fill="none" xmlns="http://www.w3.org/2000/svg">
<path d="M4.09921 11.5498V4.77899H7.1751C7.91021 4.77899 8.55828 4.92086 9.11929 5.20459C9.6803 5.48187 10.1188 5.87199 10.4348 6.37497C10.7507 6.87794 10.9087 7.47442 10.9087 8.1644C10.9087 8.84793 10.7507 9.4444 10.4348 9.95383C10.1188 10.4568 9.6803 10.8502 9.11929 11.1339C8.55828 11.4112 7.91021 11.5498 7.1751 11.5498H4.09921ZM5.66617 10.2634H7.09771C7.5491 10.2634 7.93923 10.1795 8.2681 10.0119C8.60341 9.83776 8.86135 9.59272 9.04191 9.27675C9.22891 8.96077 9.32241 8.58999 9.32241 8.1644C9.32241 7.73236 9.22891 7.36157 9.04191 7.05205C8.86135 6.73608 8.60341 6.49426 8.2681 6.32661C7.93923 6.1525 7.5491 6.06545 7.09771 6.06545H5.66617V10.2634ZM13.1576 8.18052H15.874V9.19614H13.1576V8.18052ZM13.2544 10.5019H16.3254V11.5498H11.9566V5.90746H16.2206V6.95532H13.2544V10.5019ZM16.6645 11.5498L19.0907 8.2047V9.15584L16.7692 5.90746H18.2524L19.8564 8.17246L19.2358 8.18052L20.8156 5.90746H22.2343L19.929 9.09942V8.1644L22.3713 11.5498H20.864L19.2035 9.15584H19.8L18.1637 11.5498H16.6645Z" fill="#44E19F"/>
<rect x="1.54824" y="1.7455" width="23.3754" height="14.5089" stroke="#44E19F" stroke-width="1.6121"/>
</svg>
