<svg   viewBox="0 0 30 30" fill="none" xmlns="http://www.w3.org/2000/svg">
<path d="M3 30C2.175 30 1.46875 29.7066 0.88125 29.1198C0.29375 28.5331 0 27.8277 0 27.0037V6.02996C0 5.20599 0.29375 4.50062 0.88125 3.91386C1.46875 3.32709 2.175 3.03371 3 3.03371H16.3875L13.3875 6.02996H3V27.0037H24V16.5918L27 13.5955V27.0037C27 27.8277 26.7063 28.5331 26.1188 29.1198C25.5313 29.7066 24.825 30 24 30H3ZM9 21.0112V14.6442L22.7625 0.898876C23.0625 0.599251 23.4 0.374532 23.775 0.224719C24.15 0.0749064 24.525 0 24.9 0C25.3 0 25.6813 0.0749064 26.0438 0.224719C26.4063 0.374532 26.7375 0.599251 27.0375 0.898876L29.1375 3.03371C29.4125 3.33333 29.625 3.66417 29.775 4.02622C29.925 4.38826 30 4.75655 30 5.13109C30 5.50562 29.9313 5.87391 29.7938 6.23595C29.6563 6.598 29.4375 6.92884 29.1375 7.22846L15.375 21.0112H9ZM12 18.015H14.1L22.8 9.32584L21.75 8.27715L20.6625 7.22846L12 15.8801V18.015Z" fill="#E8EAED"/>
</svg>
