<svg width="53" height="20" viewBox="0 0 53 20" fill="none" xmlns="http://www.w3.org/2000/svg">
<path fill-rule="evenodd" clip-rule="evenodd" d="M0 3.00012C0 1.3432 1.3432 0 3.00012 0H17.0007C18.6576 0 20.0008 1.3432 20.0008 3.00012V4.17174C20.0008 4.96742 19.6847 5.73051 19.1221 6.29314L13.2934 12.1218C13.1059 12.3094 13.0005 12.5637 13.0005 12.8289V15.1722C13.0005 15.9678 12.6844 16.731 12.1218 17.2936L9.91969 19.4957C8.84235 20.573 7.00028 19.81 7.00028 18.2864V12.8289C7.00028 12.5637 6.89492 12.3094 6.70738 12.1218L0.878715 6.29314C0.316083 5.73051 0 4.96742 0 4.17174V3.00012Z" fill="#888888"/>
<path d="M36.5 20V16.6667H42.5V20H36.5ZM30.5 11.6667V8.33333H48.5V11.6667H30.5ZM26 3.33333V0H53V3.33333H26Z" fill="#888888"/>
</svg>
