<svg width="22" height="28" viewBox="0 0 22 28" fill="none" xmlns="http://www.w3.org/2000/svg">
<path fill-rule="evenodd" clip-rule="evenodd" d="M21.2797 17.9628C21.0423 23.2669 16.3731 27.4993 10.6456 27.4993C4.76616 27.4993 7.47293e-06 22.8901 7.47293e-06 17.5393C7.47293e-06 16.8241 -0.0136958 15.3947 1.13251 12.9831C1.81847 11.5398 2.24871 10.6332 2.49152 9.80435C2.62493 9.34884 2.88439 8.62515 3.62403 9.80435C4.06015 10.4996 4.07703 11.4997 4.07703 11.4997C4.07703 11.4997 5.69968 10.3347 6.79504 8.10903C8.40082 4.84627 7.11962 2.89591 6.68179 1.53965C6.53026 1.07047 6.43513 0.227259 7.47455 0.586032C8.53367 0.951692 11.3337 2.7855 12.7973 4.71838C14.8862 7.47699 15.6286 10.1222 15.6286 10.1222C15.6286 10.1222 16.2974 9.34556 16.5346 8.53286C16.8024 7.61516 16.8064 6.70626 17.667 7.68531C18.4855 8.61636 19.701 10.366 20.3851 12.0295C21.6274 15.0502 21.2797 17.9628 21.2797 17.9628Z" fill="#44E19F"/>
<path fill-rule="evenodd" clip-rule="evenodd" d="M10.6455 27.5001C6.57989 27.5001 3.28418 24.4167 3.28418 20.6129C3.28418 18.3177 4.27274 16.9243 6.33017 15.0346C7.6475 13.8247 8.88046 12.3387 9.40447 11.3268C9.50764 11.1276 9.74241 10.0895 10.6476 11.3049C11.1225 11.9424 11.8669 13.076 12.3442 14.0435C13.1671 15.7116 13.3635 17.3282 13.3635 17.3282C13.3635 17.3282 14.1699 16.8836 14.7225 15.7388C14.9006 15.3699 15.2608 13.9732 16.2676 15.3697C17.0063 16.3945 18.0211 18.2371 18.0068 20.6129C18.0068 24.4167 14.7109 27.5001 10.6455 27.5001Z" fill="#EF268E"/>
<path fill-rule="evenodd" clip-rule="evenodd" d="M10.759 19.9761C11.8065 19.9761 11.8065 21.791 13.1372 24.2144C14.0233 25.828 12.6979 27.4991 10.759 27.4991C8.82001 27.4991 7.81445 26.0285 7.81445 24.2144C7.81445 22.4004 9.7114 19.9761 10.759 19.9761Z" fill="#CDD500"/>
</svg>
