<svg   viewBox="0 0 19 20" fill="none" xmlns="http://www.w3.org/2000/svg">
<path d="M9.26953 0C4.8247 0 0.817516 2.56517 1.30078 8.5625C1.2936 8.71038 1.26953 8.84763 1.26953 9C1.26953 9.19539 1.31673 9.44063 1.33203 9.65625C0.756988 10.0897 0.269531 10.6712 0.269531 11.5C0.269531 12.6765 1.14582 13.5134 2.23828 13.7812C2.83373 15.3252 3.66544 16.7895 4.76953 17.9062C5.98803 19.1388 7.5362 20 9.26953 20C11.0029 20 12.5352 19.1373 13.7383 17.9062C14.8339 16.7851 15.6711 15.318 16.3008 13.7812C17.3932 13.5134 18.2695 12.6765 18.2695 11.5C18.2695 10.6712 17.7821 10.0897 17.207 9.65625C17.2358 9.46498 17.2695 9.34028 17.2695 9C17.2695 8.69564 17.2666 8.41129 17.2383 8.125C17.443 2.44161 13.6045 0 9.26953 0ZM6.86328 5.40625C8.36436 8.13549 12.5312 6.44247 15.0195 7.1875C15.0919 7.43476 15.1684 7.70919 15.207 8H3.33203C3.34033 7.9375 3.35338 7.87289 3.36328 7.8125C4.51457 6.91445 5.41953 7.675 6.86328 5.40625ZM5.26953 9.5L8.26953 10.5C8.26953 11.3 7.56953 12 6.76953 12C5.96953 12 5.26953 11.1 5.26953 9.5ZM13.2695 9.5C13.2695 11.1 12.5695 12 11.7695 12C10.9695 12 10.2695 11.3 10.2695 10.5L13.2695 9.5ZM15.1758 10.5938V10.8125L15.8633 11.0625C16.1471 11.1571 16.2695 11.2762 16.2695 11.5C16.2695 11.7167 15.9862 12 15.7695 12H15.582H14.8633L14.6445 12.6562C14.0846 14.1494 13.2477 15.531 12.3008 16.5C11.3538 17.469 10.3362 18 9.26953 18C8.20286 18 7.16353 17.4675 6.20703 16.5C5.25053 15.5325 4.43225 14.1609 3.92578 12.6875L3.67578 12H2.95703H2.76953C2.55286 12 2.26953 11.7167 2.26953 11.5C2.26953 11.2762 2.39201 11.1571 2.67578 11.0625L3.36328 10.8125L4.67578 13C5.07578 13.6 5.66328 14 6.36328 14C6.86328 14 7.46953 13.8062 7.76953 13.4062L8.58203 12.5938C8.98203 12.1938 9.46328 12.1938 9.86328 12.5938L10.6758 13.4062C11.0758 13.8062 11.582 14 12.082 14C12.782 14 13.4695 13.6 13.7695 13L15.082 10.8125L15.1758 10.5938Z" fill="#FF0000"/>
</svg>
