<svg width="30" height="18" viewBox="0 0 30 18" fill="none" xmlns="http://www.w3.org/2000/svg">
<path d="M5.10086 11.5498V6.05577H2.9342V4.77899H8.83448V6.05577H6.66782V11.5498H5.10086ZM9.45511 11.5498V7.21326H10.6561V8.43845L10.4869 8.08379C10.6158 7.77749 10.8227 7.54643 11.1075 7.39059C11.3923 7.22938 11.7389 7.14878 12.1473 7.14878V8.30949C12.0936 8.30411 12.0452 8.30143 12.0022 8.30143C11.9592 8.29605 11.9136 8.29337 11.8652 8.29337C11.5213 8.29337 11.2419 8.39278 11.0269 8.5916C10.8173 8.78506 10.7125 9.08867 10.7125 9.50244V11.5498H9.45511ZM12.9679 11.5498V5.90746H14.048L17.377 9.96995H16.8531V5.90746H18.1427V11.5498H17.0707L13.7337 7.48732H14.2576V11.5498H12.9679ZM19.4777 11.5498V5.90746H22.0409C22.6535 5.90746 23.1936 6.02568 23.6611 6.26212C24.1286 6.49319 24.494 6.8183 24.7573 7.23744C25.0206 7.65659 25.1523 8.15365 25.1523 8.72863C25.1523 9.29824 25.0206 9.7953 24.7573 10.2198C24.494 10.639 24.1286 10.9668 23.6611 11.2032C23.1936 11.4343 22.6535 11.5498 22.0409 11.5498H19.4777ZM20.7835 10.4778H21.9765C22.3526 10.4778 22.6777 10.4079 22.9518 10.2682C23.2312 10.1231 23.4462 9.9189 23.5966 9.65559C23.7524 9.39228 23.8304 9.08329 23.8304 8.72863C23.8304 8.3686 23.7524 8.05961 23.5966 7.80168C23.4462 7.53837 23.2312 7.33685 22.9518 7.19714C22.6777 7.05205 22.3526 6.97951 21.9765 6.97951H20.7835V10.4778Z" fill="#44E19F"/>
<rect x="0.878315" y="1.7455" width="26.5996" height="14.5089" stroke="#44E19F" stroke-width="1.6121"/>
</svg>
