<svg width="24" height="25" viewBox="0 0 24 25" fill="none" xmlns="http://www.w3.org/2000/svg">
<path d="M18.121 0.697266H13.0809C9.38099 0.697266 7.6458 2.01022 7.28432 5.18422C7.20869 5.84825 7.75863 6.39745 8.42695 6.39745H10.9208C15.9609 6.39745 18.301 8.73753 18.301 13.7777V16.2715C18.301 16.9398 18.8502 17.4898 19.5143 17.4142C22.6882 17.0526 24.0012 15.3175 24.0012 11.6176V6.57746C24.0012 2.37732 22.3212 0.697266 18.121 0.697266Z" fill="#CDD500"/>
<path d="M10.9204 7.89697H5.88019C1.68005 7.89697 0 9.57703 0 13.7772V18.8173C0 23.0175 1.68005 24.6975 5.88019 24.6975H10.9204C15.1205 24.6975 16.8005 23.0175 16.8005 18.8173V13.7772C16.8005 9.57703 15.1205 7.89697 10.9204 7.89697ZM12.3484 14.6772L7.89626 19.1293C7.72825 19.2973 7.51224 19.3813 7.28424 19.3813C7.05623 19.3813 6.84022 19.2973 6.67222 19.1293L4.44014 16.8973C4.10413 16.5613 4.10413 16.0212 4.44014 15.6852C4.77616 15.3492 5.31617 15.3492 5.65218 15.6852L7.27224 17.3053L11.1244 13.4532C11.4604 13.1171 12.0004 13.1171 12.3364 13.4532C12.6724 13.7892 12.6844 14.3412 12.3484 14.6772Z" fill="#CDD500"/>
</svg>
