<svg width="28" height="18" viewBox="0 0 28 18" fill="none" xmlns="http://www.w3.org/2000/svg">
<path d="M7.76971 11.6659C7.24739 11.6659 6.76053 11.582 6.30914 11.4144C5.86421 11.2403 5.4773 10.9952 5.14843 10.6793C4.81957 10.3633 4.56163 9.99252 4.37463 9.56692C4.19407 9.14133 4.10379 8.67382 4.10379 8.1644C4.10379 7.65497 4.19407 7.18747 4.37463 6.76187C4.56163 6.33628 4.81957 5.9655 5.14843 5.64952C5.48375 5.33355 5.87388 5.09174 6.31882 4.92408C6.76376 4.74997 7.25061 4.66292 7.77938 4.66292C8.36618 4.66292 8.89495 4.76609 9.36568 4.97244C9.84286 5.17234 10.2427 5.46897 10.5651 5.86232L9.55913 6.79089C9.32699 6.52651 9.06906 6.32983 8.78533 6.20086C8.5016 6.06545 8.19208 5.99774 7.85676 5.99774C7.54079 5.99774 7.25061 6.04932 6.98623 6.1525C6.72184 6.25567 6.49292 6.40399 6.29947 6.59744C6.10602 6.79089 5.95448 7.01981 5.84486 7.28419C5.74169 7.54858 5.6901 7.84198 5.6901 8.1644C5.6901 8.48682 5.74169 8.78022 5.84486 9.0446C5.95448 9.30899 6.10602 9.53791 6.29947 9.73136C6.49292 9.92481 6.72184 10.0731 6.98623 10.1763C7.25061 10.2795 7.54079 10.3311 7.85676 10.3311C8.19208 10.3311 8.5016 10.2666 8.78533 10.1376C9.06906 10.0022 9.32699 9.79907 9.55913 9.52823L10.5651 10.4568C10.2427 10.8502 9.84286 11.15 9.36568 11.3564C8.89495 11.5627 8.36296 11.6659 7.76971 11.6659ZM12.6582 11.5498V6.97145H10.8527V5.90746H15.7696V6.97145H13.964V11.5498H12.6582ZM19.134 11.6465C18.688 11.6465 18.2742 11.574 17.8927 11.4289C17.5165 11.2838 17.1887 11.0796 16.9093 10.8163C16.6353 10.553 16.4203 10.244 16.2645 9.88934C16.114 9.53468 16.0388 9.14778 16.0388 8.72863C16.0388 8.30949 16.114 7.92258 16.2645 7.56792C16.4203 7.21326 16.6379 6.90427 16.9174 6.64097C17.1968 6.37766 17.5246 6.17346 17.9007 6.02837C18.2769 5.88328 18.6853 5.81073 19.1259 5.81073C19.572 5.81073 19.9804 5.88328 20.3511 6.02837C20.7273 6.17346 21.0524 6.37766 21.3265 6.64097C21.6059 6.90427 21.8235 7.21326 21.9794 7.56792C22.1352 7.91721 22.2131 8.30411 22.2131 8.72863C22.2131 9.14778 22.1352 9.53737 21.9794 9.8974C21.8235 10.2521 21.6059 10.5611 21.3265 10.8244C21.0524 11.0823 20.7273 11.2838 20.3511 11.4289C19.9804 11.574 19.5746 11.6465 19.134 11.6465ZM19.1259 10.5342C19.3785 10.5342 19.6096 10.4912 19.8191 10.4052C20.0341 10.3192 20.2222 10.1956 20.3834 10.0344C20.5446 9.87322 20.6682 9.68246 20.7542 9.46214C20.8455 9.24182 20.8912 8.99732 20.8912 8.72863C20.8912 8.45995 20.8455 8.21545 20.7542 7.99513C20.6682 7.77481 20.5446 7.58404 20.3834 7.42283C20.2275 7.26162 20.0422 7.13803 19.8272 7.05205C19.6123 6.96607 19.3785 6.92308 19.1259 6.92308C18.8734 6.92308 18.6396 6.96607 18.4247 7.05205C18.2151 7.13803 18.0297 7.26162 17.8685 7.42283C17.7073 7.58404 17.581 7.77481 17.4897 7.99513C17.4037 8.21545 17.3607 8.45995 17.3607 8.72863C17.3607 8.99194 17.4037 9.23644 17.4897 9.46214C17.581 9.68246 17.7046 9.87322 17.8604 10.0344C18.0217 10.1956 18.2097 10.3192 18.4247 10.4052C18.6396 10.4912 18.8734 10.5342 19.1259 10.5342Z" fill="#44E19F"/>
<rect x="1.30165" y="1.7455" width="23.3754" height="14.5089" stroke="#44E19F" stroke-width="1.6121"/>
</svg>
