<svg width="20" height="10" viewBox="0 0 20 10" fill="none" xmlns="http://www.w3.org/2000/svg">
<path d="M0.475656 9V0.599999H1.75966L5.43166 6.732H4.75966L8.37166 0.599999H9.65566L9.66766 9H8.19166L8.17966 2.916H8.49166L5.41966 8.04H4.72366L1.60366 2.916H1.96366V9H0.475656ZM15.8246 9.12C15.1846 9.12 14.5886 9.016 14.0366 8.808C13.4926 8.592 13.0166 8.292 12.6086 7.908C12.2086 7.516 11.8966 7.056 11.6726 6.528C11.4486 6 11.3366 5.424 11.3366 4.8C11.3366 4.176 11.4486 3.6 11.6726 3.072C11.8966 2.544 12.2126 2.088 12.6206 1.704C13.0286 1.312 13.5046 1.012 14.0486 0.804C14.5926 0.588 15.1886 0.48 15.8366 0.48C16.5246 0.48 17.1526 0.6 17.7206 0.84C18.2886 1.072 18.7686 1.42 19.1606 1.884L18.1526 2.832C17.8486 2.504 17.5086 2.26 17.1326 2.1C16.7566 1.932 16.3486 1.848 15.9086 1.848C15.4686 1.848 15.0646 1.92 14.6966 2.064C14.3366 2.208 14.0206 2.412 13.7486 2.676C13.4846 2.94 13.2766 3.252 13.1246 3.612C12.9806 3.972 12.9086 4.368 12.9086 4.8C12.9086 5.232 12.9806 5.628 13.1246 5.988C13.2766 6.348 13.4846 6.66 13.7486 6.924C14.0206 7.188 14.3366 7.392 14.6966 7.536C15.0646 7.68 15.4686 7.752 15.9086 7.752C16.3486 7.752 16.7566 7.672 17.1326 7.512C17.5086 7.344 17.8486 7.092 18.1526 6.756L19.1606 7.716C18.7686 8.172 18.2886 8.52 17.7206 8.76C17.1526 9 16.5206 9.12 15.8246 9.12Z" fill="#888888"/>
</svg>
