<svg width="11" height="10" viewBox="0 0 11 10" fill="none" xmlns="http://www.w3.org/2000/svg">
<path d="M3.30095 1.5001C1.92015 1.5001 0.800781 2.61947 0.800781 4.00027C0.800781 5.02549 1.41787 5.9066 2.30088 6.29243V7.62552H9.30136V6.29243C10.1844 5.9066 10.8015 5.02549 10.8015 4.00027C10.8015 2.61947 9.68208 1.5001 8.30129 1.5001C8.17603 1.5001 8.05292 1.50931 7.93256 1.5271C7.63144 0.639073 6.79089 0 5.80112 0C4.81135 0 3.9708 0.639073 3.66966 1.5271C3.54933 1.50931 3.42622 1.5001 3.30095 1.5001Z" fill="#44E19F"/>
<path d="M9.30005 8.37598H2.30127C2.30636 9.07447 2.34214 9.457 2.59334 9.70817C2.88625 10.0011 3.35769 10.0011 4.30056 10.0011H7.30076C8.24363 10.0011 8.71506 10.0011 9.00798 9.70817C9.2592 9.457 9.29495 9.07447 9.30005 8.37598Z" fill="#44E19F"/>
</svg>
