<svg   viewBox="0 0 26 20" fill="none" xmlns="http://www.w3.org/2000/svg">
<mask id="path-1-inside-1_2065_900" fill="white">
<path d="M3.65938 18.5687C3.77453 19.2402 4.35236 19.7275 5.03334 19.7275C5.7145 19.7275 6.29251 19.2402 6.40766 18.5687L6.4147 18.5278H3.65234L3.65938 18.5687Z"/>
</mask>
<path d="M3.65938 18.5687L5.63061 18.2307L5.63042 18.2296L3.65938 18.5687ZM6.40766 18.5687L4.43662 18.2296L4.43643 18.2307L6.40766 18.5687ZM6.4147 18.5278L8.38574 18.8669L8.78817 16.5278H6.4147V18.5278ZM3.65234 18.5278V16.5278H1.27889L1.6813 18.8669L3.65234 18.5278ZM1.68815 18.9068C1.96786 20.5379 3.37777 21.7275 5.03334 21.7275V17.7275C5.32696 17.7275 5.58119 17.9425 5.63061 18.2307L1.68815 18.9068ZM5.03334 21.7275C6.68863 21.7275 8.0991 20.5384 8.37889 18.9068L4.43643 18.2307C4.48593 17.942 4.74037 17.7275 5.03334 17.7275V21.7275ZM8.3787 18.9078L8.38574 18.8669L4.44365 18.1887L4.43662 18.2296L8.3787 18.9078ZM6.4147 16.5278H3.65234V20.5278H6.4147V16.5278ZM1.6813 18.8669L1.68834 18.9078L5.63042 18.2296L5.62339 18.1887L1.6813 18.8669Z" fill="#CDD500" mask="url(#path-1-inside-1_2065_900)"/>
<path d="M7.89891 16.1277C8.03366 16.3867 8.1962 16.5903 8.35306 16.7526H1.71673C1.87359 16.5903 2.03613 16.3867 2.17088 16.1277C2.43208 15.6256 2.54397 15.0157 2.54397 14.2327V13.129C2.54397 11.9736 3.36041 10.9545 4.48249 10.7006L5.0349 10.5756L5.58728 10.7006C6.70932 10.9545 7.52581 11.9736 7.52581 13.129V14.2327C7.52581 15.0157 7.6377 15.6256 7.89891 16.1277Z" stroke="#CDD500" stroke-width="2"/>
<path d="M21.8083 7.71436H24.322V10.3993H21.8083C21.0722 10.3993 20.4658 9.79293 20.4658 9.05685C20.4658 8.32076 21.0722 7.71436 21.8083 7.71436Z" stroke="white" stroke-width="2"/>
<path d="M22.0459 14.1562H24.0319C23.3346 15.8086 21.7797 16.8411 19.5863 16.8411H12.5148C12.8031 16.0413 12.9849 15.1654 12.9849 14.3274C12.9849 10.2262 9.64418 6.88555 5.54303 6.88555C4.67494 6.88555 3.82605 7.03949 3.0293 7.33082V6.12869C3.0293 4.73961 3.44547 3.62649 4.12411 2.83027C4.80071 2.03646 5.79156 1.4943 7.06133 1.33495L7.07811 1.33285L7.0948 1.33018C7.32934 1.29265 7.59229 1.27246 7.8738 1.27246H19.5863C19.8702 1.27246 20.0993 1.28392 20.3003 1.31742L20.3259 1.32167L20.3516 1.3246C22.1329 1.52742 23.4173 2.496 24.0325 3.95744H21.9288C18.7729 3.95744 16.262 6.83919 16.9435 10.1126C17.4346 12.5441 19.6631 14.1562 22.0459 14.1562Z" stroke="white" stroke-width="2"/>
</svg>
