<svg width="54" height="42" viewBox="0 0 54 42" fill="none" xmlns="http://www.w3.org/2000/svg">
<path d="M42.4941 23.625V18.375H53.1176V23.625H42.4941ZM45.6812 42L37.1824 35.7L40.3694 31.5L48.8682 37.8L45.6812 42ZM40.3694 10.5L37.1824 6.3L45.6812 0L48.8682 4.2L40.3694 10.5ZM7.96765 39.375V28.875H5.31176C3.85103 28.875 2.60055 28.3609 1.56033 27.3328C0.52011 26.3047 0 25.0687 0 23.625V18.375C0 16.9312 0.52011 15.6953 1.56033 14.6672C2.60055 13.6391 3.85103 13.125 5.31176 13.125H15.9353L29.2147 5.25V36.75L15.9353 28.875H13.2794V39.375H7.96765ZM23.9029 27.4312V14.5687L17.396 18.375H5.31176V23.625H17.396L23.9029 27.4312ZM31.8706 29.7937V12.2062C33.0657 13.2562 34.0285 14.5359 34.7589 16.0453C35.4892 17.5547 35.8544 19.2062 35.8544 21C35.8544 22.7937 35.4892 24.4453 34.7589 25.9547C34.0285 27.4641 33.0657 28.7437 31.8706 29.7937Z" fill="#E8EAED"/>
</svg>
