<svg   viewBox="0 0 13 9" fill="none" xmlns="http://www.w3.org/2000/svg">
<path d="M3.66859 0.341797C2.59623 0.341797 1.69319 1.22878 1.69319 2.28207C1.69319 3.33536 2.59623 4.22235 3.66859 4.22235C4.74094 4.22235 5.64398 3.33536 5.64398 2.28207C5.64398 1.22878 4.74094 0.341797 3.66859 0.341797ZM8.74817 0.341797C7.67581 0.341797 6.77277 1.22878 6.77277 2.28207C6.77277 3.33536 7.67581 4.22235 8.74817 4.22235C9.82052 4.22235 10.7236 3.33536 10.7236 2.28207C10.7236 1.22878 9.82052 0.341797 8.74817 0.341797ZM3.66859 5.33107C0.903036 5.33107 0 7.54853 0 7.54853V8.65726H7.33717V7.54853C7.33717 7.54853 6.43413 5.33107 3.66859 5.33107ZM8.74817 5.33107C7.90157 5.33107 7.22429 5.55282 6.71633 5.83C7.50649 6.49524 7.84513 7.27135 7.90157 7.32679L7.95801 7.43766V8.65726H12.4732V7.54853C12.4168 7.54853 11.5137 5.33107 8.74817 5.33107Z" fill="#888888"/>
</svg>
