<svg   viewBox="0 0 12 11" fill="none" xmlns="http://www.w3.org/2000/svg">
<path fill-rule="evenodd" clip-rule="evenodd" d="M2.10107 4.68573C2.10107 3.33404 3.19683 2.23828 4.54852 2.23828C5.90022 2.23828 6.99597 3.33404 6.99597 4.68573C6.99597 6.03743 5.90022 7.13318 4.54852 7.13318C3.19683 7.13318 2.10107 6.03743 2.10107 4.68573Z" fill="#888888"/>
<path fill-rule="evenodd" clip-rule="evenodd" d="M1.90567 8.0566C2.57592 7.76568 3.45533 7.67627 4.54826 7.67627C5.64213 7.67627 6.52218 7.76585 7.19267 8.05742C7.92304 8.37499 8.36695 8.91593 8.59962 9.67969C8.70867 10.0377 8.43978 10.3957 8.06924 10.3957H1.02832C0.657326 10.3957 0.387867 10.0371 0.497252 9.6785C0.730233 8.91462 1.17482 8.37385 1.90567 8.0566Z" fill="#888888"/>
<path fill-rule="evenodd" clip-rule="evenodd" d="M11.1878 0.764765C11.4002 0.977165 11.4002 1.32153 11.1878 1.53393L9.28423 3.4375C8.92162 3.80008 8.3338 3.80008 7.9712 3.4375L7.15538 2.62168C6.943 2.40928 6.943 2.06492 7.15538 1.85252C7.36777 1.64012 7.71215 1.64012 7.92453 1.85252L8.62771 2.5557L10.4186 0.764765C10.631 0.55237 10.9754 0.55237 11.1878 0.764765Z" fill="#888888"/>
</svg>
