<svg width="10" height="10" viewBox="0 0 10 10" fill="none" xmlns="http://www.w3.org/2000/svg">
<path d="M8.36554 6.20488C7.71281 5.55215 6.90829 5.10659 6.03167 4.90039L5.46065 5.47141L5.71089 8.50125C5.71936 8.60404 5.69138 8.70652 5.63179 8.79071L5.06083 9.59749C5.02398 9.64956 4.96418 9.6805 4.90041 9.6805C4.83664 9.6805 4.77684 9.64956 4.73999 9.59749L4.16903 8.79071C4.10946 8.70652 4.08146 8.60402 4.08993 8.50125L4.34017 5.47141L3.76915 4.90039C2.89253 5.10659 2.08799 5.55215 1.43528 6.20488C0.509733 7.13044 0 8.36105 0 9.66999C0 9.85203 0.147588 9.99962 0.329627 9.99962H9.47123C9.65327 9.99962 9.80086 9.85203 9.80086 9.66999C9.80086 8.36105 9.29111 7.13044 8.36554 6.20488Z" fill="#EF268E"/>
<path d="M4.89908 4.35675C6.10216 4.35675 7.07746 3.38146 7.07746 2.17838C7.07746 0.975292 6.10216 0 4.89908 0C3.696 0 2.7207 0.975292 2.7207 2.17838C2.7207 3.38146 3.696 4.35675 4.89908 4.35675Z" fill="#EF268E"/>
</svg>
