<svg width="35" height="41" viewBox="0 0 40 41" fill="none" xmlns="http://www.w3.org/2000/svg">
<path d="M0.675 8.56488C0.675 4.59251 3.89525 1.37227 7.86762 1.37227H32.1324C36.1048 1.37227 39.325 4.59251 39.325 8.56488V32.8296C39.325 36.802 36.1048 40.0223 32.1324 40.0223H7.86762C3.89524 40.0223 0.675 36.802 0.675 32.8296V8.56488Z" stroke="#292828" stroke-width="1.35"/>
<path d="M18.0576 14.5075L24.3581 10.7657C27.5141 8.89135 31.5919 9.93034 33.4663 13.0863C35.3406 16.2423 34.3016 20.3202 31.1456 22.1945L24.8451 25.9363L18.0576 14.5075Z" stroke="white" stroke-width="2.7"/>
<path d="M15.6956 15.895L9.40283 19.6323C6.24543 21.5074 5.20598 25.5871 7.08115 28.7445C8.95631 31.9019 13.036 32.9414 16.1934 31.0662L22.4862 27.329L15.6956 15.895Z" stroke="#44E19F" stroke-width="2.7"/>
</svg>
