<svg width="31" height="24" viewBox="0 0 31 24" fill="none" xmlns="http://www.w3.org/2000/svg">
<path d="M24.6046 13.5V10.5H30.6752V13.5H24.6046ZM26.4258 24L21.5693 20.4L23.3905 18L28.247 21.6L26.4258 24ZM23.3905 6L21.5693 3.6L26.4258 0L28.247 2.4L23.3905 6ZM4.87521 22.5V16.5H3.35756C2.52285 16.5 1.8083 16.2062 1.21388 15.6187C0.619471 15.0312 0.322266 14.325 0.322266 13.5V10.5C0.322266 9.675 0.619471 8.96875 1.21388 8.38125C1.8083 7.79375 2.52285 7.5 3.35756 7.5H9.42815L17.0164 3V21L9.42815 16.5H7.9105V22.5H4.87521ZM13.9811 15.675V8.325L10.2629 10.5H3.35756V13.5H10.2629L13.9811 15.675ZM18.534 17.025V6.975C19.217 7.575 19.7671 8.30625 20.1845 9.16875C20.6018 10.0312 20.8105 10.975 20.8105 12C20.8105 13.025 20.6018 13.9688 20.1845 14.8313C19.7671 15.6938 19.217 16.425 18.534 17.025Z" fill="#E8EAED"/>
</svg>
