<svg   viewBox="0 0 22 30" fill="none" xmlns="http://www.w3.org/2000/svg">
<path d="M1.5 20.5227C1 19.6591 0.625 18.7727 0.375 17.8636C0.125 16.9545 0 16.0227 0 15.0682C0 12.0227 1.05682 9.43182 3.17045 7.29545C5.28409 5.15909 7.86364 4.09091 10.9091 4.09091H11.1477L8.96591 1.90909L10.875 0L16.3295 5.45455L10.875 10.9091L8.96591 9L11.1477 6.81818H10.9091C8.63636 6.81818 6.70455 7.61932 5.11364 9.22159C3.52273 10.8239 2.72727 12.7727 2.72727 15.0682C2.72727 15.6591 2.79545 16.2386 2.93182 16.8068C3.06818 17.375 3.27273 17.9318 3.54545 18.4773L1.5 20.5227ZM10.9432 30L5.48864 24.5455L10.9432 19.0909L12.8523 21L10.6705 23.1818H10.9091C13.1818 23.1818 15.1136 22.3807 16.7045 20.7784C18.2955 19.1761 19.0909 17.2273 19.0909 14.9318C19.0909 14.3409 19.0227 13.7614 18.8864 13.1932C18.75 12.625 18.5455 12.0682 18.2727 11.5227L20.3182 9.47727C20.8182 10.3409 21.1932 11.2273 21.4432 12.1364C21.6932 13.0455 21.8182 13.9773 21.8182 14.9318C21.8182 17.9773 20.7614 20.5682 18.6477 22.7045C16.5341 24.8409 13.9545 25.9091 10.9091 25.9091H10.6705L12.8523 28.0909L10.9432 30Z" fill="#E8EAED"/>
</svg>
