<svg width="28" height="25" viewBox="0 0 28 25" fill="none" xmlns="http://www.w3.org/2000/svg">
<path fill-rule="evenodd" clip-rule="evenodd" d="M1.55556 0C0.696453 0 0 0.7995 0 1.78571C0 2.77193 0.696453 3.57143 1.55556 3.57143H26.4444C27.3036 3.57143 28 2.77193 28 1.78571C28 0.7995 27.3036 0 26.4444 0H1.55556ZM6.22222 12.5C6.22222 11.5138 6.91868 10.7143 7.77778 10.7143H26.4444C27.3036 10.7143 28 11.5138 28 12.5C28 13.4862 27.3036 14.2857 26.4444 14.2857H7.77778C6.91868 14.2857 6.22222 13.4862 6.22222 12.5ZM15.5556 23.2143C15.5556 22.228 16.252 21.4286 17.1111 21.4286H26.4444C27.3036 21.4286 28 22.228 28 23.2143C28 24.2005 27.3036 25 26.4444 25H17.1111C16.252 25 15.5556 24.2005 15.5556 23.2143Z" fill="#DF2384"/>
</svg>
