<svg width="21" height="21" viewBox="0 0 21 21" fill="none" xmlns="http://www.w3.org/2000/svg">
<rect width="21" height="21" rx="5" fill="#343434"/>
<path d="M16.7556 18L11.1556 12.4C10.7111 12.7556 10.2 13.037 9.62222 13.2444C9.04444 13.4519 8.42963 13.5556 7.77778 13.5556C6.16296 13.5556 4.7963 12.9963 3.67778 11.8778C2.55926 10.7593 2 9.39259 2 7.77778C2 6.16296 2.55926 4.7963 3.67778 3.67778C4.7963 2.55926 6.16296 2 7.77778 2C9.39259 2 10.7593 2.55926 11.8778 3.67778C12.9963 4.7963 13.5556 6.16296 13.5556 7.77778C13.5556 8.42963 13.4519 9.04444 13.2444 9.62222C13.037 10.2 12.7556 10.7111 12.4 11.1556L18 16.7556L16.7556 18ZM7.77778 11.7778C8.88889 11.7778 9.83333 11.3889 10.6111 10.6111C11.3889 9.83333 11.7778 8.88889 11.7778 7.77778C11.7778 6.66667 11.3889 5.72222 10.6111 4.94444C9.83333 4.16667 8.88889 3.77778 7.77778 3.77778C6.66667 3.77778 5.72222 4.16667 4.94444 4.94444C4.16667 5.72222 3.77778 6.66667 3.77778 7.77778C3.77778 8.88889 4.16667 9.83333 4.94444 10.6111C5.72222 11.3889 6.66667 11.7778 7.77778 11.7778Z" fill="#090909"/>
</svg>
