<svg   viewBox="0 0 26 30" fill="none" xmlns="http://www.w3.org/2000/svg">
<g opacity="0.5">
<path d="M12.6224 0L1.90735e-06 7.16609L4.04293 9.66995L12.6224 4.79403L21.0876 9.50915L25.0156 7.16609L12.6224 0Z" fill="#CC087E"/>
<path d="M21.0873 9.49805L25.0352 7.14258V29.9989L21.0873 23.6818V9.49805Z" fill="#940059"/>
<path d="M25.0391 29.9998L16.5857 26.2326L16.6698 21.5879L21.088 23.6828L25.0391 29.9998Z" fill="#F90196"/>
<path d="M16.6497 26.2255L12.6596 28.4348L12.6962 23.8999L16.6719 21.5879L16.6497 26.2255Z" fill="#940059"/>
<path d="M12.6669 28.4346L0.037344 21.3553L0.0122824 7.15234L4.05527 9.6553L4.04121 18.9852L12.7031 23.9038L12.6669 28.4346Z" fill="#F90196"/>
<path d="M16.7461 12.0586L12.6802 14.2638L12.7464 18.9705L16.7461 16.6528V12.0586Z" fill="#940059"/>
<path d="M12.644 9.76758L8.60253 12.0663L12.6712 14.3031L16.7578 12.0573L12.644 9.76758Z" fill="#CC097E"/>
<path d="M12.7006 14.2951L8.60304 12.0371L8.66679 16.4999L12.7461 18.9713L12.7006 14.2951Z" fill="#F90196"/>
</g>
</svg>
