<svg xmlns:xlink="http://www.w3.org/1999/xlink" data-name="Layer 1" viewBox="0 0 508 398">
  <defs>
    <linearGradient id="a" x1="463" x2="182.4" y1="205.2" y2="742.6" gradientTransform="translate(0 -198)" gradientUnits="userSpaceOnUse">
      <stop offset="0" stop-color="#00ffa3"/>
      <stop offset="1" stop-color="#dc1fff"/>
    </linearGradient>
    <linearGradient xlink:href="#a" id="b" x1="340.3" x2="59.7" y1="141.1" y2="678.6"/>
    <linearGradient xlink:href="#a" id="c" x1="401.3" x2="120.7" y1="172.9" y2="710.4"/>
  </defs>
  <path fill="url(#a)" d="M85 359a17 17 0 0 1 11-5h406a8 8 0 0 1 6 14l-80 80a17 17 0 0 1-12 5H10a8 8 0 0 1-6-14Z" transform="translate(-2 -55)"/>
  <path fill="url(#b)" d="M85 60a17 17 0 0 1 11-5h406a8 8 0 0 1 6 14l-80 80a17 17 0 0 1-12 5H10a8 8 0 0 1-6-14Z" transform="translate(-2 -55)"/>
  <path fill="url(#c)" d="M428 208a17 17 0 0 0-12-4H10a8 8 0 0 0-6 14l81 80a17 17 0 0 0 11 5h406a8 8 0 0 0 6-14Z" transform="translate(-2 -55)"/>
</svg>
