<svg width="45" height="24" viewBox="0 0 45 24" fill="none" xmlns="http://www.w3.org/2000/svg">
<path d="M8 13V5.825L5.425 8.4L4 7L9 2L14 7L12.575 8.4L10 5.825V13H8ZM15 22L10 17L11.425 15.6L14 18.175V11H16V18.175L18.575 15.6L20 17L15 22Z" fill="#888888"/>
<path fill-rule="evenodd" clip-rule="evenodd" d="M43.8333 22C44.4777 22 45 21.3604 45 20.5714C45 19.7825 44.4777 19.1429 43.8333 19.1429L25.1667 19.1429C24.5223 19.1429 24 19.7825 24 20.5714C24 21.3604 24.5223 22 25.1667 22L43.8333 22ZM40.3333 12C40.3333 12.789 39.811 13.4286 39.1667 13.4286L25.1667 13.4286C24.5223 13.4286 24 12.789 24 12C24 11.211 24.5223 10.5714 25.1667 10.5714L39.1667 10.5714C39.811 10.5714 40.3333 11.211 40.3333 12ZM33.3333 3.42857C33.3333 4.21757 32.811 4.85714 32.1667 4.85714L25.1667 4.85714C24.5223 4.85714 24 4.21757 24 3.42857C24 2.63957 24.5223 2 25.1667 2L32.1667 2C32.811 2 33.3333 2.63957 33.3333 3.42857Z" fill="#888888"/>
</svg>
