<svg   viewBox="0 0 11 10" fill="none" xmlns="http://www.w3.org/2000/svg">
<path d="M3.84612 1.70419C4.47944 0.568066 4.79609 0 5.26954 0C5.74299 0 6.05964 0.568061 6.69294 1.70419L6.85679 1.99812C7.03679 2.32097 7.12674 2.4824 7.26709 2.58891C7.40739 2.69542 7.58209 2.73495 7.93159 2.81403L8.24979 2.88602C9.47959 3.16428 10.0945 3.30342 10.2408 3.77387C10.3871 4.24431 9.96795 4.73456 9.12949 5.71496L8.91259 5.96861C8.67434 6.24721 8.55519 6.38651 8.50159 6.55886C8.44804 6.73121 8.46604 6.91706 8.50204 7.28881L8.53484 7.62721C8.66159 8.93531 8.72499 9.58936 8.34199 9.88011C7.95894 10.1709 7.38319 9.90576 6.23169 9.37561L5.93379 9.23841C5.60659 9.08776 5.44299 9.01241 5.26954 9.01241C5.09609 9.01241 4.93249 9.08776 4.60529 9.23841L4.30739 9.37561C3.15588 9.90576 2.58013 10.1709 2.19711 9.88011C1.81409 9.58936 1.87747 8.93531 2.00423 7.62721L2.03702 7.28881C2.07305 6.91706 2.09106 6.73121 2.03746 6.55886C1.98387 6.38651 1.86475 6.24721 1.62649 5.96861L1.40958 5.71496C0.571158 4.73456 0.151942 4.24431 0.298242 3.77387C0.444542 3.30342 1.05946 3.16428 2.2893 2.88602L2.60748 2.81403C2.95696 2.73495 3.1317 2.69542 3.27201 2.58891C3.41231 2.4824 3.5023 2.32097 3.68227 1.99812L3.84612 1.70419Z" fill="#CDD500"/>
</svg>
