<svg width="41" height="40" viewBox="0 0 41 40" fill="none" xmlns="http://www.w3.org/2000/svg">
<path d="M7.3 35C6.3925 35 5.61563 34.6736 4.96938 34.0208C4.32313 33.3681 4 32.5833 4 31.6667V23.3333C4 22.4167 4.32313 21.6319 4.96938 20.9792C5.61563 20.3264 6.3925 20 7.3 20H15.55C15.55 21.3889 16.0312 22.5694 16.9938 23.5417C17.9563 24.5139 19.125 25 20.5 25C21.875 25 23.0438 24.5139 24.0063 23.5417C24.9688 22.5694 25.45 21.3889 25.45 20H33.7C34.6075 20 35.3844 20.3264 36.0306 20.9792C36.6769 21.6319 37 22.4167 37 23.3333V31.6667C37 32.5833 36.6769 33.3681 36.0306 34.0208C35.3844 34.6736 34.6075 35 33.7 35H7.3ZM7.3 31.6667H33.7V23.3333H28.09C27.4025 24.8611 26.3781 26.0764 25.0169 26.9792C23.6556 27.8819 22.15 28.3333 20.5 28.3333C18.85 28.3333 17.3444 27.8819 15.9831 26.9792C14.6219 26.0764 13.5975 24.8611 12.91 23.3333H7.3V31.6667ZM29.74 18L27.43 15.6667L33.2875 9.75L35.5975 12.0833L29.74 18ZM11.26 18L5.4025 12.0833L7.7125 9.75L13.57 15.6667L11.26 18ZM18.85 13.3333V5H22.15V13.3333H18.85Z" fill="#CDD500"/>
<path d="M0.675 7.86762C0.675 3.89524 3.89524 0.675 7.86762 0.675H33.1324C37.1048 0.675 40.325 3.89525 40.325 7.86762V32.1324C40.325 36.1048 37.1048 39.325 33.1324 39.325H7.86762C3.89525 39.325 0.675 36.1048 0.675 32.1324V7.86762Z" stroke="#292828" stroke-width="1.35"/>
</svg>
