<svg width="40" height="41" viewBox="0 0 40 41" fill="none" xmlns="http://www.w3.org/2000/svg">
<path d="M0.675 8.56488C0.675 4.59251 3.89525 1.37227 7.86762 1.37227H32.1324C36.1048 1.37227 39.325 4.59251 39.325 8.56488V32.8296C39.325 36.802 36.1048 40.0223 32.1324 40.0223H7.86762C3.89524 40.0223 0.675 36.802 0.675 32.8296V8.56488Z" stroke="#292828" stroke-width="1.35"/>
<path fill-rule="evenodd" clip-rule="evenodd" d="M17.0648 29.1026C17.2833 29.5122 17.5021 29.8812 17.7113 30.2082C15.4892 29.7085 13.5611 28.4322 12.2269 26.6793C13.1075 26.1834 14.2353 25.6694 15.5911 25.2933C15.9764 26.8046 16.5201 28.0812 17.0648 29.1026ZM18.7455 28.2063C18.2723 27.319 17.798 26.211 17.4563 24.8981C18.1919 24.7889 18.9772 24.7259 19.81 24.7259C20.6428 24.7259 21.4281 24.7889 22.1636 24.898C21.8219 26.211 21.3476 27.319 20.8743 28.2063C20.4949 28.9178 20.1168 29.4858 19.8099 29.9014C19.503 29.4858 19.125 28.9178 18.7455 28.2063ZM16.9528 20.9164C16.9528 21.6581 17.0027 22.3621 17.0907 23.0267C17.9393 22.8966 18.8466 22.8211 19.81 22.8211C20.7733 22.8211 21.6806 22.8964 22.5292 23.0267C22.6172 22.362 22.6671 21.6581 22.6671 20.9164C22.6671 20.1747 22.6172 19.4708 22.5292 18.806C21.6806 18.9362 20.7733 19.0116 19.81 19.0116C18.8466 19.0116 17.9393 18.9362 17.0907 18.806C17.0027 19.4707 16.9528 20.1747 16.9528 20.9164ZM15.2218 18.4133C15.1112 19.1993 15.048 20.0343 15.048 20.9164C15.048 21.7984 15.1112 22.6334 15.2218 23.4195C13.6047 23.8536 12.2656 24.4658 11.2299 25.0549C10.6251 23.8035 10.2861 22.3995 10.2861 20.9164C10.2861 19.4332 10.6251 18.0293 11.2299 16.7778C12.2654 17.3668 13.6046 17.979 15.2218 18.4133ZM17.4563 16.9347C18.1919 17.0439 18.9772 17.1068 19.81 17.1068C20.6428 17.1068 21.4281 17.0439 22.1636 16.9347C21.8219 15.6218 21.3476 14.5137 20.8743 13.6265C20.4949 12.915 20.1168 12.3469 19.8099 11.9314C19.503 12.3469 19.125 12.915 18.7455 13.6264C18.2723 14.5137 17.798 15.6218 17.4563 16.9347ZM24.398 18.4134C24.5086 19.1994 24.5718 20.0345 24.5718 20.9164C24.5718 21.7984 24.5086 22.6333 24.398 23.4193C26.0151 23.8536 27.3543 24.4658 28.39 25.0549C28.9947 23.8033 29.3337 22.3994 29.3337 20.9164C29.3337 19.4333 28.9947 18.0293 28.39 16.7779C27.3544 17.3669 26.0153 17.9791 24.398 18.4134ZM27.3929 15.1535C26.5123 15.6495 25.3845 16.1634 24.0288 16.5396C23.6434 15.0282 23.0998 13.7515 22.5551 12.7301C22.3365 12.3205 22.1177 11.9516 21.9086 11.6246C24.1307 12.1243 26.0588 13.4006 27.3929 15.1535ZM15.5911 16.5395C14.2353 16.1634 13.1076 15.6494 12.2269 15.1535C13.5611 13.4006 15.4892 12.1243 17.7111 11.6246C17.5021 11.9516 17.2833 12.3205 17.0648 12.7301C16.5201 13.7515 15.9764 15.0281 15.5911 16.5395ZM24.0288 25.2931C23.6434 26.8046 23.0998 28.0812 22.5551 29.1026C22.3365 29.5122 22.1177 29.8812 21.9086 30.2082C24.1307 29.7085 26.0588 28.432 27.393 26.6792C26.5124 26.1833 25.3846 25.6694 24.0288 25.2931ZM19.8099 32.3449C26.1218 32.3449 31.2385 27.2282 31.2385 20.9164C31.2385 14.6045 26.1218 9.48779 19.8099 9.48779C13.4981 9.48779 8.38135 14.6045 8.38135 20.9164C8.38135 27.2282 13.4981 32.3449 19.8099 32.3449Z" fill="#44E19F"/>
</svg>
