<svg width="35" height="41" viewBox="0 0 40 41" fill="none" xmlns="http://www.w3.org/2000/svg">
<path d="M0.675 8.56488C0.675 4.59251 3.89525 1.37227 7.86762 1.37227H32.1324C36.1048 1.37227 39.325 4.59251 39.325 8.56488V32.8296C39.325 36.802 36.1048 40.0223 32.1324 40.0223H7.86762C3.89524 40.0223 0.675 36.802 0.675 32.8296V8.56488Z" stroke="#292828" stroke-width="1.35"/>
<path d="M32.1779 10.5115C32.2311 10.204 32.1111 9.89247 31.8626 9.69254C31.6139 9.49261 31.2738 9.4342 30.9684 9.53902L5.3685 18.3303C5.02359 18.4487 4.78547 18.7536 4.76339 19.1052C4.74131 19.4567 4.93954 19.787 5.26713 19.9445L12.5814 23.461C12.8749 23.602 13.2245 23.5811 13.4974 23.4061L19.569 19.5141L15.9335 23.8837C15.7734 24.0761 15.7047 24.3243 15.744 24.5678C15.7833 24.8113 15.9271 25.0277 16.1403 25.1644L27.1118 32.1973C27.3698 32.3627 27.6977 32.3911 27.9824 32.2725C28.2671 32.154 28.4697 31.9047 28.5207 31.6104L32.1779 10.5115Z" fill="#44E19F"/>
</svg>
