<svg width="32" height="20" viewBox="0 0 32 20" fill="none" xmlns="http://www.w3.org/2000/svg">
<path d="M0.158203 0V20H31.2693V0H0.158203ZM2.38043 2.22222H29.0471V17.7778H2.38043V2.22222ZM4.60265 4.44444V15.5556H7.93598C9.77376 15.5556 11.2693 14.06 11.2693 12.2222V7.77778C11.2693 5.94 9.77376 4.44444 7.93598 4.44444H4.60265ZM15.7138 4.44444C14.4882 4.44444 13.4915 5.44111 13.4915 6.66667V13.3333C13.4915 14.5589 14.4882 15.5556 15.7138 15.5556H17.936V13.3333H15.7138V11.1111H17.936V8.88889H15.7138V6.66667H17.936V4.44444H15.7138ZM19.8153 4.44444L22.1309 14.4727C22.2775 15.106 22.8415 15.5556 23.4915 15.5556C24.1415 15.5556 24.7055 15.106 24.8522 14.4727L27.1678 4.44444H24.8869L23.4915 10.4883L22.0961 4.44444H19.8153ZM6.82487 6.66667H7.93598C8.54931 6.66667 9.04709 7.16444 9.04709 7.77778V12.2222C9.04709 12.8356 8.54931 13.3333 7.93598 13.3333H6.82487V6.66667Z" fill="#888888"/>
</svg>
