<svg width="35" height="40" viewBox="0 0 40 40" fill="none" xmlns="http://www.w3.org/2000/svg">
<path d="M6.408 35L3.96 29.4H5.088L7.272 34.464H6.624L8.832 29.4H9.872L7.432 35H6.408ZM12.0624 35.056C11.5878 35.056 11.1718 34.9627 10.8144 34.776C10.4624 34.584 10.1878 34.3227 9.99044 33.992C9.79844 33.6613 9.70244 33.2853 9.70244 32.864C9.70244 32.4373 9.79577 32.0613 9.98244 31.736C10.1744 31.4053 10.4358 31.1467 10.7664 30.96C11.1024 30.7733 11.4838 30.68 11.9104 30.68C12.3264 30.68 12.6971 30.7707 13.0224 30.952C13.3478 31.1333 13.6038 31.3893 13.7904 31.72C13.9771 32.0507 14.0704 32.44 14.0704 32.888C14.0704 32.9307 14.0678 32.9787 14.0624 33.032C14.0624 33.0853 14.0598 33.136 14.0544 33.184H10.4944V32.52H13.5264L13.1344 32.728C13.1398 32.4827 13.0891 32.2667 12.9824 32.08C12.8758 31.8933 12.7291 31.7467 12.5424 31.64C12.3611 31.5333 12.1504 31.48 11.9104 31.48C11.6651 31.48 11.4491 31.5333 11.2624 31.64C11.0811 31.7467 10.9371 31.896 10.8304 32.088C10.7291 32.2747 10.6784 32.496 10.6784 32.752V32.912C10.6784 33.168 10.7371 33.3947 10.8544 33.592C10.9718 33.7893 11.1371 33.9413 11.3504 34.048C11.5638 34.1547 11.8091 34.208 12.0864 34.208C12.3264 34.208 12.5424 34.1707 12.7344 34.096C12.9264 34.0213 13.0971 33.904 13.2464 33.744L13.7824 34.36C13.5904 34.584 13.3478 34.7573 13.0544 34.88C12.7664 34.9973 12.4358 35.056 12.0624 35.056ZM15.031 35V29.064H16.031V35H15.031ZM19.2635 35.056C18.8262 35.056 18.4368 34.9627 18.0955 34.776C17.7542 34.584 17.4848 34.3227 17.2875 33.992C17.0902 33.6613 16.9915 33.2853 16.9915 32.864C16.9915 32.4373 17.0902 32.0613 17.2875 31.736C17.4848 31.4053 17.7542 31.1467 18.0955 30.96C18.4368 30.7733 18.8262 30.68 19.2635 30.68C19.7062 30.68 20.0982 30.7733 20.4395 30.96C20.7862 31.1467 21.0555 31.4027 21.2475 31.728C21.4448 32.0533 21.5435 32.432 21.5435 32.864C21.5435 33.2853 21.4448 33.6613 21.2475 33.992C21.0555 34.3227 20.7862 34.584 20.4395 34.776C20.0982 34.9627 19.7062 35.056 19.2635 35.056ZM19.2635 34.2C19.5088 34.2 19.7275 34.1467 19.9195 34.04C20.1115 33.9333 20.2608 33.7787 20.3675 33.576C20.4795 33.3733 20.5355 33.136 20.5355 32.864C20.5355 32.5867 20.4795 32.3493 20.3675 32.152C20.2608 31.9493 20.1115 31.7947 19.9195 31.688C19.7275 31.5813 19.5115 31.528 19.2715 31.528C19.0262 31.528 18.8075 31.5813 18.6155 31.688C18.4288 31.7947 18.2795 31.9493 18.1675 32.152C18.0555 32.3493 17.9995 32.5867 17.9995 32.864C17.9995 33.136 18.0555 33.3733 18.1675 33.576C18.2795 33.7787 18.4288 33.9333 18.6155 34.04C18.8075 34.1467 19.0235 34.2 19.2635 34.2ZM24.4598 35.056C24.0118 35.056 23.6118 34.9627 23.2598 34.776C22.9131 34.584 22.6411 34.3227 22.4438 33.992C22.2464 33.6613 22.1478 33.2853 22.1478 32.864C22.1478 32.4373 22.2464 32.0613 22.4438 31.736C22.6411 31.4053 22.9131 31.1467 23.2598 30.96C23.6118 30.7733 24.0118 30.68 24.4598 30.68C24.8758 30.68 25.2411 30.7653 25.5558 30.936C25.8758 31.1013 26.1184 31.3467 26.2838 31.672L25.5158 32.12C25.3878 31.9173 25.2304 31.768 25.0438 31.672C24.8624 31.576 24.6651 31.528 24.4518 31.528C24.2064 31.528 23.9851 31.5813 23.7878 31.688C23.5904 31.7947 23.4358 31.9493 23.3238 32.152C23.2118 32.3493 23.1558 32.5867 23.1558 32.864C23.1558 33.1413 23.2118 33.3813 23.3238 33.584C23.4358 33.7813 23.5904 33.9333 23.7878 34.04C23.9851 34.1467 24.2064 34.2 24.4518 34.2C24.6651 34.2 24.8624 34.152 25.0438 34.056C25.2304 33.96 25.3878 33.8107 25.5158 33.608L26.2838 34.056C26.1184 34.376 25.8758 34.624 25.5558 34.8C25.2411 34.9707 24.8758 35.056 24.4598 35.056ZM27.1091 35V30.728H28.1091V35H27.1091ZM27.6131 30.024C27.4265 30.024 27.2718 29.9653 27.1491 29.848C27.0318 29.7307 26.9731 29.5893 26.9731 29.424C26.9731 29.2533 27.0318 29.112 27.1491 29C27.2718 28.8827 27.4265 28.824 27.6131 28.824C27.7998 28.824 27.9518 28.88 28.0691 28.992C28.1918 29.0987 28.2531 29.2347 28.2531 29.4C28.2531 29.576 28.1945 29.7253 28.0771 29.848C27.9598 29.9653 27.8051 30.024 27.6131 30.024ZM31.0296 35.056C30.5603 35.056 30.1976 34.936 29.9416 34.696C29.6856 34.4507 29.5576 34.0907 29.5576 33.616V29.784H30.5576V33.592C30.5576 33.7947 30.6083 33.952 30.7096 34.064C30.8163 34.176 30.963 34.232 31.1496 34.232C31.3736 34.232 31.5603 34.1733 31.7096 34.056L31.9896 34.768C31.8723 34.864 31.7283 34.936 31.5576 34.984C31.387 35.032 31.211 35.056 31.0296 35.056ZM28.8536 31.56V30.76H31.7016V31.56H28.8536ZM33.0861 36.608C32.8781 36.608 32.6701 36.5733 32.4621 36.504C32.2541 36.4347 32.0808 36.3387 31.9421 36.216L32.3421 35.48C32.4435 35.5707 32.5581 35.6427 32.6861 35.696C32.8141 35.7493 32.9448 35.776 33.0781 35.776C33.2595 35.776 33.4061 35.7307 33.5181 35.64C33.6301 35.5493 33.7341 35.3973 33.8301 35.184L34.0781 34.624L34.1581 34.504L35.7741 30.728H36.7341L34.7341 35.344C34.6008 35.664 34.4515 35.9173 34.2861 36.104C34.1261 36.2907 33.9448 36.4213 33.7421 36.496C33.5448 36.5707 33.3261 36.608 33.0861 36.608ZM33.9661 35.152L32.0381 30.728H33.0781L34.6461 34.416L33.9661 35.152Z" fill="white"/>
<path d="M0.675 7.86762C0.675 3.89524 3.89525 0.675 7.86762 0.675H32.1324C36.1048 0.675 39.325 3.89525 39.325 7.86762V32.1324C39.325 36.1048 36.1048 39.325 32.1324 39.325H7.86762C3.89524 39.325 0.675 36.1048 0.675 32.1324V7.86762Z" stroke="#292828" stroke-width="1.35"/>
<path d="M10.6857 7H8V27H27.8534V24.3143H10.6857V7Z" fill="#44E19F"/>
<path d="M31.9698 9.75781L23.7007 11.2122L25.9194 13.4309L22.2041 17.1478L18.2465 13.1886L11.9961 19.439L14.5272 21.9701L18.2465 18.2516L22.2041 22.2108L28.4521 15.9636L30.5154 18.0269L31.9698 9.75781Z" fill="#44E19F"/>
</svg>
