<svg viewBox="0 0 209 63" fill="none" xmlns="http://www.w3.org/2000/svg">
<path d="M122.34 24.3562C122.34 11.9408 112.275 1.87604 99.8596 1.87604H24.1368C11.7213 1.87604 1.65662 11.9408 1.65662 24.3562V38.5543C1.65662 50.9697 11.7213 61.0345 24.1368 61.0345H99.8596C112.275 61.0345 122.34 50.9697 122.34 38.5543V24.3562Z" fill="#090909" stroke="#00C2FF" stroke-width="2.36634"/>
<path d="M30.9048 49.0591L16.6121 15.9304H24.8943L37.3886 45.2729H32.5139L45.1975 15.9304H52.8171L38.4771 49.0591H30.9048Z" fill="white"/>
<path d="M60.815 24.3562C60.815 11.9408 70.8797 1.87604 83.2952 1.87604H185.048C197.463 1.87604 207.528 11.9408 207.528 24.3562V38.5543C207.528 50.9697 197.463 61.0345 185.048 61.0345H83.2952C70.8797 61.0345 60.815 50.9697 60.815 38.5543V24.3562Z" fill="#090909" stroke="#00C2FF" stroke-width="2.36634"/>
</svg>
