<svg width="88" height="26" viewBox="0 0 88 26" fill="none" xmlns="http://www.w3.org/2000/svg">
<path d="M51.5 10C51.5 4.75329 47.2467 0.5 42 0.5H10C4.7533 0.5 0.5 4.7533 0.5 10V16C0.5 21.2467 4.75329 25.5 10 25.5H42C47.2467 25.5 51.5 21.2467 51.5 16V10Z" fill="#090909" stroke="#00C2FF"/>
<path d="M12.86 20L6.82 6H10.32L15.6 18.4H13.54L18.9 6H22.12L16.06 20H12.86Z" fill="white"/>
<path d="M25.5 10C25.5 4.75329 29.7533 0.5 35 0.5H78C83.2467 0.5 87.5 4.7533 87.5 10V16C87.5 21.2467 83.2467 25.5 78 25.5H35C29.7533 25.5 25.5 21.2467 25.5 16V10Z" fill="#090909" stroke="#00C2FF"/>
</svg>
