<svg width="27" height="20" viewBox="0 0 27 20" fill="none" xmlns="http://www.w3.org/2000/svg">
<path d="M5.26957 10C2.50705 10 0.269531 12.2375 0.269531 15C0.269531 15.9375 0.532033 16.8251 0.994537 17.5751C1.85704 19.0251 3.44456 20.0001 5.26957 20.0001C7.09459 20.0001 8.6821 19.0251 9.54461 17.5751C10.0071 16.8251 10.2696 15.9375 10.2696 15C10.2696 12.2375 8.03209 10 5.26957 10ZM7.73209 14.5875L5.06957 17.0501C4.89457 17.2126 4.65707 17.3001 4.43206 17.3001C4.19456 17.3001 3.95706 17.2126 3.76956 17.0251L2.53205 15.7875C2.16955 15.425 2.16955 14.825 2.53205 14.4625C2.89455 14.1 3.49456 14.1 3.85706 14.4625L4.45706 15.0625L6.45708 13.2125C6.83208 12.8625 7.43209 12.8875 7.78209 13.2625C8.13209 13.6375 8.10709 14.2375 7.73209 14.5875Z" fill="#FF0000"/>
<path d="M25.8951 6.875H22.77C21.395 6.875 20.27 8.00001 20.27 9.37502C20.27 10.75 21.395 11.875 22.77 11.875H25.8951C26.2451 11.875 26.5201 11.6 26.5201 11.25V7.5C26.5201 7.15 26.2451 6.875 25.8951 6.875Z" fill="#888888"/>
<path d="M26.3565 14.5751C25.594 17.1501 23.394 18.7501 20.3939 18.7501H12.2689C11.7814 18.7501 11.4688 18.2126 11.6689 17.7626C12.0439 16.8876 12.2814 15.9001 12.2814 15.0001C12.2814 11.2126 9.19381 8.12506 5.40628 8.12506C4.45627 8.12506 3.53127 8.32507 2.68126 8.70007C2.21875 8.90007 1.65625 8.58757 1.65625 8.08756V6.25005C1.65625 2.85002 3.70627 0.475004 6.89379 0.0750005C7.2063 0.0250001 7.54379 0 7.89379 0H20.3939C20.7189 0 21.0314 0.0125003 21.3314 0.0625007C23.8565 0.350003 25.6815 1.88751 26.3565 4.17503C26.4815 4.58754 26.1815 5.00004 25.7565 5.00004H22.8939C20.1814 5.00004 18.0314 7.47506 18.6189 10.2876C19.0314 12.3376 20.9314 13.7501 23.0189 13.7501H25.7565C26.194 13.7501 26.4815 14.1751 26.3565 14.5751Z" fill="#888888"/>
</svg>
