<svg   viewBox="0 0 23 20" fill="none" xmlns="http://www.w3.org/2000/svg">
<path fill-rule="evenodd" clip-rule="evenodd" d="M4.1997 8.62389C7.44232 2.87462 9.06363 0 11.6311 0C14.1986 0 15.8199 2.87462 19.0626 8.62389L19.4666 9.34033C22.1612 14.1179 23.5086 16.5067 22.2908 18.2533C21.0731 20 18.0605 20 12.0352 20H11.227C5.20175 20 2.1891 20 0.971419 18.2533C-0.246269 16.5067 1.10103 14.1179 3.79563 9.34033L4.1997 8.62389ZM11.6311 4.72222C12.0914 4.72222 12.4645 5.09532 12.4645 5.55556V11.1111C12.4645 11.5713 12.0914 11.9444 11.6311 11.9444C11.1709 11.9444 10.7978 11.5713 10.7978 11.1111V5.55556C10.7978 5.09532 11.1709 4.72222 11.6311 4.72222ZM11.6311 15.5556C12.2448 15.5556 12.7422 15.0581 12.7422 14.4444C12.7422 13.8308 12.2448 13.3333 11.6311 13.3333C11.0175 13.3333 10.52 13.8308 10.52 14.4444C10.52 15.0581 11.0175 15.5556 11.6311 15.5556Z" fill="#FD9904"/>
</svg>
